G04*
G04 #@! TF.GenerationSoftware,Altium Limited,Altium Designer,20.0.2 (26)*
G04*
G04 Layer_Color=255*
%FSLAX25Y25*%
%MOIN*%
G70*
G01*
G75*
%ADD27R,0.05000X0.05000*%
%ADD28R,0.05000X0.05000*%
%ADD29R,0.03500X0.03500*%
%ADD30R,0.03500X0.03500*%
%ADD31R,0.01968X0.09843*%
%ADD33R,0.05118X0.05906*%
%ADD34R,0.09449X0.12992*%
%ADD35R,0.09449X0.03937*%
%ADD37R,0.06000X0.06000*%
%ADD38R,0.15000X0.04331*%
%ADD42R,0.05906X0.05118*%
%ADD68R,0.07874X0.09843*%
%ADD71R,0.24000X0.04724*%
%ADD120C,0.05906*%
%ADD129R,0.05906X0.05906*%
%ADD130C,0.12520*%
%ADD148C,0.23622*%
%ADD149R,0.04724X0.09843*%
%ADD150O,0.04724X0.09843*%
%ADD151C,0.03937*%
%ADD152O,0.04134X0.03543*%
%ADD153C,0.03543*%
%ADD154R,0.09843X0.04724*%
%ADD155O,0.09843X0.04724*%
%ADD156O,0.03937X0.06000*%
%ADD157O,0.07874X0.04724*%
%ADD158O,0.07874X0.05906*%
%ADD174R,0.06000X0.06000*%
%ADD175R,0.08000X0.12500*%
%ADD176O,0.09843X0.02500*%
%ADD177R,0.09843X0.02500*%
G04:AMPARAMS|DCode=178|XSize=19.29mil|YSize=11.81mil|CornerRadius=1.48mil|HoleSize=0mil|Usage=FLASHONLY|Rotation=90.000|XOffset=0mil|YOffset=0mil|HoleType=Round|Shape=RoundedRectangle|*
%AMROUNDEDRECTD178*
21,1,0.01929,0.00886,0,0,90.0*
21,1,0.01634,0.01181,0,0,90.0*
1,1,0.00295,0.00443,0.00817*
1,1,0.00295,0.00443,-0.00817*
1,1,0.00295,-0.00443,-0.00817*
1,1,0.00295,-0.00443,0.00817*
%
%ADD178ROUNDEDRECTD178*%
D27*
X-1200Y14437D02*
D03*
Y6563D02*
D03*
X97000Y49463D02*
D03*
Y57337D02*
D03*
X131500Y18937D02*
D03*
Y11063D02*
D03*
X139500Y18937D02*
D03*
Y11063D02*
D03*
X-20200Y46437D02*
D03*
Y38563D02*
D03*
X12700Y44937D02*
D03*
Y37063D02*
D03*
X-7600Y6763D02*
D03*
Y14637D02*
D03*
X-5500Y136763D02*
D03*
Y144637D02*
D03*
X-26900Y145737D02*
D03*
Y137863D02*
D03*
X52400Y100837D02*
D03*
Y92963D02*
D03*
X58700Y100937D02*
D03*
Y93063D02*
D03*
X65100Y85263D02*
D03*
Y93137D02*
D03*
X96500Y84963D02*
D03*
Y92837D02*
D03*
X106400Y57537D02*
D03*
Y49663D02*
D03*
X102500Y84863D02*
D03*
Y92737D02*
D03*
X58000Y34163D02*
D03*
Y42037D02*
D03*
X80500Y97937D02*
D03*
Y90063D02*
D03*
X88600Y85063D02*
D03*
Y92937D02*
D03*
X60600Y137537D02*
D03*
Y129663D02*
D03*
X138000Y222437D02*
D03*
Y214563D02*
D03*
X114000Y174837D02*
D03*
Y166963D02*
D03*
X-7000Y160477D02*
D03*
Y168351D02*
D03*
X2500Y160477D02*
D03*
Y168351D02*
D03*
X12500Y160477D02*
D03*
Y168351D02*
D03*
X-25000Y196433D02*
D03*
Y188559D02*
D03*
X-24500Y155063D02*
D03*
Y162937D02*
D03*
D28*
X-1537Y87200D02*
D03*
X6337D02*
D03*
X8037Y97600D02*
D03*
X163D02*
D03*
X-20537Y78200D02*
D03*
X-12663D02*
D03*
X12649Y204000D02*
D03*
X20523D02*
D03*
X66263Y43800D02*
D03*
X74137D02*
D03*
X228437Y187800D02*
D03*
X220563D02*
D03*
X192437Y2500D02*
D03*
X184563D02*
D03*
X192437Y9600D02*
D03*
X184563D02*
D03*
X16537Y80300D02*
D03*
X8663D02*
D03*
X13637Y69500D02*
D03*
X5763D02*
D03*
X-20537Y68200D02*
D03*
X-12663D02*
D03*
X-20537Y85600D02*
D03*
X-12663D02*
D03*
X15063Y52700D02*
D03*
X22937D02*
D03*
X-3237Y122600D02*
D03*
X4637D02*
D03*
X72937Y99300D02*
D03*
X65063D02*
D03*
X81437Y83800D02*
D03*
X73563D02*
D03*
X56874Y13000D02*
D03*
X49000D02*
D03*
X97237Y11700D02*
D03*
X89363D02*
D03*
X126763Y38700D02*
D03*
X134637D02*
D03*
X127163Y48400D02*
D03*
X135037D02*
D03*
X130463Y88600D02*
D03*
X138337D02*
D03*
X130463Y81100D02*
D03*
X138337D02*
D03*
X89437Y195000D02*
D03*
X81563D02*
D03*
X81563Y187500D02*
D03*
X89437D02*
D03*
X130237Y173100D02*
D03*
X122363D02*
D03*
X129337Y159900D02*
D03*
X121463D02*
D03*
X90063Y160400D02*
D03*
X97937D02*
D03*
X90237Y214900D02*
D03*
X82363D02*
D03*
X20523Y186500D02*
D03*
X12649D02*
D03*
X20523Y195500D02*
D03*
X12649D02*
D03*
D29*
X15000Y92450D02*
D03*
Y97950D02*
D03*
X-12100Y47750D02*
D03*
Y53250D02*
D03*
D30*
X8300Y51500D02*
D03*
X2800D02*
D03*
D31*
X98701Y244500D02*
D03*
X101850D02*
D03*
X105000D02*
D03*
X108150D02*
D03*
X111299D02*
D03*
D33*
X64460Y70400D02*
D03*
X71940D02*
D03*
X109540Y76500D02*
D03*
X102059D02*
D03*
X132160Y25600D02*
D03*
X139640D02*
D03*
X148160Y66100D02*
D03*
X155640D02*
D03*
X138140Y72600D02*
D03*
X130659D02*
D03*
X207760Y124500D02*
D03*
X215241D02*
D03*
X181560Y130300D02*
D03*
X189041D02*
D03*
X215240Y101000D02*
D03*
X207759D02*
D03*
X-19740Y180000D02*
D03*
X-12259D02*
D03*
X-2740Y177000D02*
D03*
X4741D02*
D03*
D34*
X151000Y11000D02*
D03*
D35*
X173835Y20055D02*
D03*
X173835Y11000D02*
D03*
X173835Y1945D02*
D03*
D37*
X184649Y17280D02*
D03*
X198149D02*
D03*
X-19251Y59980D02*
D03*
X-5751D02*
D03*
X13249Y177480D02*
D03*
X26749D02*
D03*
D38*
X174201Y114600D02*
D03*
X136799D02*
D03*
X158099Y178400D02*
D03*
X195501D02*
D03*
X157499Y223600D02*
D03*
X194901D02*
D03*
D42*
X198700Y44640D02*
D03*
Y37159D02*
D03*
X215800Y50800D02*
D03*
Y43320D02*
D03*
X52500Y137240D02*
D03*
Y129760D02*
D03*
X24500Y67740D02*
D03*
Y60259D02*
D03*
X4600Y135940D02*
D03*
Y128460D02*
D03*
X45800Y93160D02*
D03*
X45800Y100640D02*
D03*
X154900Y36440D02*
D03*
Y28960D02*
D03*
X201900Y91340D02*
D03*
Y83859D02*
D03*
X138500Y200020D02*
D03*
Y207500D02*
D03*
X34500Y157260D02*
D03*
Y164741D02*
D03*
X35500Y177760D02*
D03*
Y185240D02*
D03*
X-15000Y189260D02*
D03*
Y196740D02*
D03*
X62500Y267240D02*
D03*
Y259759D02*
D03*
D68*
X87283Y244500D02*
D03*
X122323D02*
D03*
X86890Y266154D02*
D03*
X122323D02*
D03*
D71*
X67600Y114900D02*
D03*
X99096D02*
D03*
D120*
X4000Y223500D02*
D03*
X9000Y233500D02*
D03*
X39000D02*
D03*
X29000D02*
D03*
X14000Y223500D02*
D03*
X24000D02*
D03*
X19000Y233500D02*
D03*
D129*
X34000Y223500D02*
D03*
D130*
X-1000Y258500D02*
D03*
X44000D02*
D03*
D148*
X-25000Y11000D02*
D03*
X223000D02*
D03*
X222300Y258300D02*
D03*
X-24600Y257600D02*
D03*
D149*
X164842Y257000D02*
D03*
D150*
X155000D02*
D03*
X145158D02*
D03*
D151*
X228500Y65921D02*
D03*
Y61000D02*
D03*
X54264Y6000D02*
D03*
X39500D02*
D03*
X44421D02*
D03*
X49343D02*
D03*
X94264D02*
D03*
X79500D02*
D03*
X84421D02*
D03*
X89342D02*
D03*
X228900Y115061D02*
D03*
Y110139D02*
D03*
D152*
X-20000Y141921D02*
D03*
Y137000D02*
D03*
Y132079D02*
D03*
Y127157D02*
D03*
D153*
X-6120Y43000D02*
D03*
X-33680D02*
D03*
D154*
X-32600Y95900D02*
D03*
D155*
Y85900D02*
D03*
Y75900D02*
D03*
Y65900D02*
D03*
D156*
X-8421Y267772D02*
D03*
X51815Y268165D02*
D03*
D157*
X70500Y265000D02*
D03*
Y245315D02*
D03*
D158*
X69700Y211485D02*
D03*
Y201800D02*
D03*
Y191800D02*
D03*
Y172272D02*
D03*
Y162272D02*
D03*
Y181957D02*
D03*
D174*
X122819Y10649D02*
D03*
Y24149D02*
D03*
X24480Y167751D02*
D03*
Y154251D02*
D03*
D175*
X215000Y63400D02*
D03*
X190000D02*
D03*
X216000Y112500D02*
D03*
X191000D02*
D03*
D176*
X125795Y214402D02*
D03*
D177*
Y209402D02*
D03*
Y204402D02*
D03*
Y199402D02*
D03*
Y194402D02*
D03*
Y189402D02*
D03*
Y184402D02*
D03*
Y179402D02*
D03*
X100205Y179402D02*
D03*
Y184402D02*
D03*
Y189402D02*
D03*
Y194402D02*
D03*
Y199402D02*
D03*
Y204402D02*
D03*
Y209402D02*
D03*
Y214402D02*
D03*
D178*
X3200Y237988D02*
D03*
Y234012D02*
D03*
X24000Y213912D02*
D03*
Y217888D02*
D03*
X27500Y244888D02*
D03*
Y240912D02*
D03*
M02*
