G04*
G04 #@! TF.GenerationSoftware,Altium Limited,Altium Designer,20.0.2 (26)*
G04*
G04 Layer_Physical_Order=2*
G04 Layer_Color=32768*
%FSLAX25Y25*%
%MOIN*%
G70*
G01*
G75*
%ADD15C,0.01500*%
%ADD162C,0.04000*%
%ADD163C,0.07504*%
%ADD164C,0.17779*%
%ADD165C,0.07150*%
%ADD166C,0.06362*%
%ADD167C,0.06165*%
%ADD168C,0.07543*%
%ADD169C,0.16284*%
%ADD170O,0.05378X0.09906*%
%ADD171C,0.04984*%
%ADD172C,0.05575*%
%ADD173C,0.04984*%
D15*
X20700Y116600D02*
X28500D01*
Y135500D01*
X18000Y146000D02*
X28500Y135500D01*
X-39100Y146000D02*
X18000D01*
X16443Y116600D02*
X20700D01*
X-40800Y25200D02*
X-37300D01*
X-37200Y25300D01*
X10900D01*
Y44900D01*
X29262Y45094D01*
X29076Y93530D02*
X29262Y45094D01*
X11898Y93430D02*
X29076Y93530D01*
X-37900Y107600D02*
X-25300D01*
D162*
X-39000Y-2500D02*
X236713Y-2500D01*
X236713Y273100D01*
X-39000Y273100D02*
X236713Y273100D01*
X-39000Y273100D02*
X-39000Y-2500D01*
D163*
X4000Y223500D02*
D03*
X9000Y233500D02*
D03*
X39000D02*
D03*
X34000Y223500D02*
D03*
X29000Y233500D02*
D03*
X14000Y223500D02*
D03*
X24000D02*
D03*
X19000Y233500D02*
D03*
D164*
X-25000Y11000D02*
D03*
X223000D02*
D03*
X222300Y258300D02*
D03*
X-24600Y257600D02*
D03*
D165*
X164842Y257000D02*
D03*
X155000D02*
D03*
X-32600Y95900D02*
D03*
Y85900D02*
D03*
Y75900D02*
D03*
Y65900D02*
D03*
X70500Y265000D02*
D03*
Y245315D02*
D03*
D166*
X228500Y65921D02*
D03*
Y61000D02*
D03*
X39500Y6000D02*
D03*
X44421D02*
D03*
X49343D02*
D03*
X79500D02*
D03*
X84421D02*
D03*
X89342D02*
D03*
X228900Y115061D02*
D03*
Y110139D02*
D03*
D167*
X-20000Y137000D02*
D03*
Y132079D02*
D03*
Y127157D02*
D03*
D168*
X-6120Y43000D02*
D03*
X-33680D02*
D03*
X69700Y201800D02*
D03*
Y191800D02*
D03*
Y172272D02*
D03*
Y162272D02*
D03*
Y181957D02*
D03*
D169*
X-1000Y258500D02*
D03*
X44000D02*
D03*
D170*
X-8421Y267772D02*
D03*
X51815Y268165D02*
D03*
D171*
X21900Y106700D02*
D03*
X12400Y149300D02*
D03*
X10600Y147400D02*
D03*
X64300Y74800D02*
D03*
X57931Y81218D02*
D03*
X57674Y77374D02*
D03*
X90100Y15700D02*
D03*
X93700Y186917D02*
D03*
X148948Y83652D02*
D03*
X155755Y73747D02*
D03*
X178686Y70614D02*
D03*
X187400Y29000D02*
D03*
X185000Y31000D02*
D03*
X183300Y33000D02*
D03*
X179600Y34700D02*
D03*
X42300Y19000D02*
D03*
X84300Y45800D02*
D03*
X90200Y18000D02*
D03*
X102300Y28900D02*
D03*
X112600Y43700D02*
D03*
X128215Y28834D02*
D03*
X57300Y45800D02*
D03*
X63400Y48318D02*
D03*
X71200Y56600D02*
D03*
X59500Y86900D02*
D03*
X71100Y91600D02*
D03*
X183800Y86200D02*
D03*
X147657Y36600D02*
D03*
X150514Y33195D02*
D03*
X160000Y15800D02*
D03*
X-2500Y172100D02*
D03*
X40800Y82200D02*
D03*
X59300Y79100D02*
D03*
X26044Y100344D02*
D03*
X39900Y143800D02*
D03*
X70400Y140500D02*
D03*
X51500Y108000D02*
D03*
X56927Y105675D02*
D03*
X11500Y60600D02*
D03*
X13800Y60900D02*
D03*
X40600Y69800D02*
D03*
X40500Y76300D02*
D03*
X40600Y79300D02*
D03*
Y73000D02*
D03*
X13100Y104700D02*
D03*
X22200Y109000D02*
D03*
X5100Y91700D02*
D03*
X121000Y55900D02*
D03*
X123000Y60700D02*
D03*
X146200Y157100D02*
D03*
X99200Y28600D02*
D03*
X108400Y93200D02*
D03*
X-10000Y191100D02*
D03*
X149393Y85984D02*
D03*
X148931Y30821D02*
D03*
X88000Y28300D02*
D03*
X91800Y28000D02*
D03*
X134700Y43300D02*
D03*
X106700Y44700D02*
D03*
X67800Y119800D02*
D03*
X68800Y138200D02*
D03*
X93200Y49300D02*
D03*
X91500Y63900D02*
D03*
X70600Y26300D02*
D03*
X64600Y31600D02*
D03*
X78800Y32700D02*
D03*
X86300Y33700D02*
D03*
X97700Y30400D02*
D03*
X105200Y29100D02*
D03*
X130953Y37300D02*
D03*
X146300Y89500D02*
D03*
X68000Y31700D02*
D03*
X19600Y141400D02*
D03*
X84900Y92700D02*
D03*
X92900Y93000D02*
D03*
X84400Y76700D02*
D03*
X83000Y139900D02*
D03*
X135900Y120500D02*
D03*
X80600Y105200D02*
D03*
X111990Y110300D02*
D03*
X121100Y66500D02*
D03*
X68800Y61000D02*
D03*
X76100Y55800D02*
D03*
X117700Y49600D02*
D03*
X90100Y51000D02*
D03*
X117500Y54600D02*
D03*
X132700Y66400D02*
D03*
X138100Y64100D02*
D03*
X138400Y60300D02*
D03*
X139147Y57347D02*
D03*
X92400Y45300D02*
D03*
X64600Y65200D02*
D03*
X71700Y58900D02*
D03*
X56800Y83300D02*
D03*
X109500Y103100D02*
D03*
X-9156Y193344D02*
D03*
X42300Y179700D02*
D03*
X53100Y116800D02*
D03*
X87400Y132200D02*
D03*
X62600Y107400D02*
D03*
X107599Y81700D02*
D03*
X7400Y92200D02*
D03*
X13500Y89600D02*
D03*
X16100Y102800D02*
D03*
X40090Y52090D02*
D03*
X57383Y52017D02*
D03*
X57500Y49600D02*
D03*
X61200Y63000D02*
D03*
X57600Y73500D02*
D03*
X26100Y104300D02*
D03*
X61200Y75400D02*
D03*
X27200Y97900D02*
D03*
X21100Y111200D02*
D03*
X72400Y84000D02*
D03*
X38400Y139473D02*
D03*
X41400Y49400D02*
D03*
X88200Y113900D02*
D03*
X88000Y116200D02*
D03*
X78900Y113900D02*
D03*
Y116000D02*
D03*
X86100Y113900D02*
D03*
X86000Y116200D02*
D03*
X81100Y113900D02*
D03*
Y116000D02*
D03*
X64900Y107300D02*
D03*
X176550Y38600D02*
D03*
X162300Y16000D02*
D03*
X176800Y65750D02*
D03*
X195013Y93313D02*
D03*
X180500Y26900D02*
D03*
X203600Y45500D02*
D03*
X211600Y87800D02*
D03*
X205400Y48200D02*
D03*
X194500Y36100D02*
D03*
X172400Y65600D02*
D03*
X-8200Y76400D02*
D03*
X-8054Y70553D02*
D03*
X21700Y80500D02*
D03*
X-15400Y53600D02*
D03*
X5700Y58800D02*
D03*
X1865Y60744D02*
D03*
X10700Y57100D02*
D03*
X-1300Y51600D02*
D03*
X-10700Y136600D02*
D03*
X180216Y84016D02*
D03*
X149900Y74700D02*
D03*
X185200Y90000D02*
D03*
X167800Y69200D02*
D03*
X186685Y88085D02*
D03*
X208300Y94500D02*
D03*
X182300Y122800D02*
D03*
X200300Y129800D02*
D03*
X204500Y131000D02*
D03*
X206000Y194000D02*
D03*
X141600Y95000D02*
D03*
X201100Y97200D02*
D03*
X135900Y229500D02*
D03*
X129800Y232600D02*
D03*
X98100Y168000D02*
D03*
X113900Y153200D02*
D03*
X145000Y200800D02*
D03*
X33100Y168900D02*
D03*
X11700Y209200D02*
D03*
X15700Y210000D02*
D03*
X13600D02*
D03*
D172*
X132300Y212000D02*
D03*
X118498Y199402D02*
D03*
X106000Y220200D02*
D03*
X98400D02*
D03*
X94000D02*
D03*
X102200D02*
D03*
X179883Y138630D02*
D03*
X119000Y29800D02*
D03*
X25700Y131400D02*
D03*
X22100D02*
D03*
X18300Y131600D02*
D03*
X13400Y128100D02*
D03*
X10436Y126372D02*
D03*
X12011Y123222D02*
D03*
X11100Y91800D02*
D03*
X21800Y87100D02*
D03*
X87600Y233300D02*
D03*
X39800Y110200D02*
D03*
X231500Y52200D02*
D03*
X225800D02*
D03*
X219900Y52000D02*
D03*
X51600Y142900D02*
D03*
X20200Y22600D02*
D03*
X18400Y26400D02*
D03*
X16825Y23250D02*
D03*
X18500Y87400D02*
D03*
X-11200Y94400D02*
D03*
X-10500Y91200D02*
D03*
X-13800Y89400D02*
D03*
X13600Y166300D02*
D03*
X181500Y60700D02*
D03*
X181600Y57200D02*
D03*
X181700Y53300D02*
D03*
Y49700D02*
D03*
X173500Y44300D02*
D03*
X173100Y40600D02*
D03*
X228200Y78700D02*
D03*
X223300Y48900D02*
D03*
X229000Y48700D02*
D03*
X164700Y1600D02*
D03*
X170100Y6200D02*
D03*
X167500Y4000D02*
D03*
X164600Y5700D02*
D03*
X125849Y1287D02*
D03*
X121849Y1487D02*
D03*
X121949Y4987D02*
D03*
X126049Y4687D02*
D03*
X223335Y29921D02*
D03*
X219398D02*
D03*
X221366Y25984D02*
D03*
X215461Y29921D02*
D03*
X217429Y25984D02*
D03*
X211524Y29921D02*
D03*
X213492Y25984D02*
D03*
X211524Y22047D02*
D03*
X207587Y29921D02*
D03*
X209555Y25984D02*
D03*
X207587Y22047D02*
D03*
X220200Y74700D02*
D03*
X224137D02*
D03*
X228074D02*
D03*
X102900Y174600D02*
D03*
X105700Y175200D02*
D03*
X99600Y174300D02*
D03*
X-8000Y94400D02*
D03*
X23400Y84000D02*
D03*
X108374Y10236D02*
D03*
X109949Y7087D02*
D03*
X108374Y3937D02*
D03*
X106799Y7087D02*
D03*
X105225Y3937D02*
D03*
X14500Y27200D02*
D03*
X-31783Y139370D02*
D03*
X-33358Y136221D02*
D03*
X167100Y138900D02*
D03*
X190883Y138730D02*
D03*
X184983Y138630D02*
D03*
X174399Y139400D02*
D03*
X168100Y145699D02*
D03*
X179000Y108700D02*
D03*
X179241Y104725D02*
D03*
X176091D02*
D03*
X172941Y98425D02*
D03*
X229074Y123800D02*
D03*
Y100178D02*
D03*
X225137Y123800D02*
D03*
Y100178D02*
D03*
X221200Y123800D02*
D03*
Y100178D02*
D03*
X225303Y236614D02*
D03*
X228256Y230709D02*
D03*
X225303Y224803D02*
D03*
X228256Y218898D02*
D03*
X219397Y236614D02*
D03*
X222350Y230709D02*
D03*
X219397Y224803D02*
D03*
X222350Y218898D02*
D03*
X213492Y236614D02*
D03*
X216445Y230709D02*
D03*
X213492Y224803D02*
D03*
X216445Y218898D02*
D03*
X207587Y236614D02*
D03*
X210539Y230709D02*
D03*
X207587Y224803D02*
D03*
X210539Y218898D02*
D03*
X201681Y236614D02*
D03*
X204634Y230709D02*
D03*
Y218898D02*
D03*
X195775Y236614D02*
D03*
X198728Y230709D02*
D03*
X189870Y236614D02*
D03*
X192823Y230709D02*
D03*
X191839Y203150D02*
D03*
X193807Y199213D02*
D03*
X191839Y195276D02*
D03*
X193807Y191339D02*
D03*
X191839Y187402D02*
D03*
X193807Y183465D02*
D03*
X187902Y203150D02*
D03*
X189870Y199213D02*
D03*
X187902Y195276D02*
D03*
X189870Y191339D02*
D03*
X187902Y187402D02*
D03*
X189870Y183465D02*
D03*
X134300Y154200D02*
D03*
X114900Y187700D02*
D03*
X118200D02*
D03*
X89100Y220200D02*
D03*
X111500Y187700D02*
D03*
X41600Y195100D02*
D03*
X41500Y199900D02*
D03*
X41600Y190500D02*
D03*
X-18300Y164800D02*
D03*
X-18200Y168000D02*
D03*
X-28200Y177000D02*
D03*
X-18200Y172100D02*
D03*
D173*
X-31000Y163000D02*
D03*
X-32100Y187800D02*
D03*
M02*
