G04*
G04 #@! TF.GenerationSoftware,Altium Limited,Altium Designer,20.0.2 (26)*
G04*
G04 Layer_Color=8388736*
%FSLAX25Y25*%
%MOIN*%
G70*
G01*
G75*
%ADD74R,0.05600X0.05600*%
%ADD75R,0.05600X0.05600*%
%ADD76R,0.04100X0.04100*%
%ADD77R,0.04100X0.04100*%
%ADD78R,0.02769X0.10642*%
G04:AMPARAMS|DCode=79|XSize=27.29mil|YSize=19.81mil|CornerRadius=5.48mil|HoleSize=0mil|Usage=FLASHONLY|Rotation=180.000|XOffset=0mil|YOffset=0mil|HoleType=Round|Shape=RoundedRectangle|*
%AMROUNDEDRECTD79*
21,1,0.02729,0.00886,0,0,180.0*
21,1,0.01634,0.01981,0,0,180.0*
1,1,0.01095,-0.00817,0.00443*
1,1,0.01095,0.00817,0.00443*
1,1,0.01095,0.00817,-0.00443*
1,1,0.01095,-0.00817,-0.00443*
%
%ADD79ROUNDEDRECTD79*%
%ADD80R,0.05718X0.06506*%
%ADD81R,0.10249X0.13792*%
%ADD82R,0.10249X0.04737*%
%ADD83R,0.10642X0.09855*%
%ADD84R,0.06800X0.06800*%
%ADD85R,0.15800X0.05131*%
%ADD86R,0.05324X0.04931*%
%ADD87R,0.09855X0.10642*%
%ADD88R,0.05721X0.12611*%
%ADD89R,0.06506X0.05718*%
%ADD90R,0.11036X0.11036*%
%ADD91R,0.11430X0.05131*%
%ADD92R,0.02375X0.06706*%
%ADD93R,0.01781X0.06506*%
%ADD94R,0.06506X0.01781*%
%ADD95R,0.09655X0.09655*%
%ADD96R,0.01600X0.06407*%
%ADD97R,0.06407X0.01600*%
%ADD98R,0.09265X0.09265*%
%ADD99R,0.08674X0.08674*%
%ADD100O,0.02372X0.06506*%
%ADD101R,0.02372X0.06506*%
%ADD102R,0.09855X0.09068*%
%ADD103R,0.09855X0.08674*%
%ADD104R,0.08674X0.09855*%
%ADD105R,0.16942X0.16942*%
G04:AMPARAMS|DCode=106|XSize=41.07mil|YSize=17.84mil|CornerRadius=6.36mil|HoleSize=0mil|Usage=FLASHONLY|Rotation=90.000|XOffset=0mil|YOffset=0mil|HoleType=Round|Shape=RoundedRectangle|*
%AMROUNDEDRECTD106*
21,1,0.04107,0.00512,0,0,90.0*
21,1,0.02835,0.01784,0,0,90.0*
1,1,0.01272,0.00256,0.01417*
1,1,0.01272,0.00256,-0.01417*
1,1,0.01272,-0.00256,-0.01417*
1,1,0.01272,-0.00256,0.01417*
%
%ADD106ROUNDEDRECTD106*%
G04:AMPARAMS|DCode=107|XSize=41.07mil|YSize=17.84mil|CornerRadius=6.36mil|HoleSize=0mil|Usage=FLASHONLY|Rotation=0.000|XOffset=0mil|YOffset=0mil|HoleType=Round|Shape=RoundedRectangle|*
%AMROUNDEDRECTD107*
21,1,0.04107,0.00512,0,0,0.0*
21,1,0.02835,0.01784,0,0,0.0*
1,1,0.01272,0.01417,-0.00256*
1,1,0.01272,-0.01417,-0.00256*
1,1,0.01272,-0.01417,0.00256*
1,1,0.01272,0.01417,0.00256*
%
%ADD107ROUNDEDRECTD107*%
%ADD108R,0.02178X0.09855*%
%ADD109R,0.05918X0.02178*%
%ADD110R,0.02375X0.04540*%
%ADD111R,0.05324X0.05324*%
G04:AMPARAMS|DCode=112|XSize=57.18mil|YSize=65.06mil|CornerRadius=0mil|HoleSize=0mil|Usage=FLASHONLY|Rotation=315.000|XOffset=0mil|YOffset=0mil|HoleType=Round|Shape=Rectangle|*
%AMROTATEDRECTD112*
4,1,4,-0.04322,-0.00278,0.00278,0.04322,0.04322,0.00278,-0.00278,-0.04322,-0.04322,-0.00278,0.0*
%
%ADD112ROTATEDRECTD112*%

%ADD113R,0.05524X0.24800*%
%ADD114R,0.08674X0.10642*%
%ADD115R,0.01781X0.07293*%
%ADD116R,0.07293X0.01781*%
%ADD117R,0.24800X0.05524*%
%ADD118R,0.09265X0.09265*%
%ADD119R,0.08674X0.08674*%
%ADD120C,0.05906*%
%ADD121C,0.24422*%
%ADD122R,0.05524X0.10642*%
%ADD123O,0.05524X0.10642*%
%ADD124C,0.04737*%
%ADD125O,0.04934X0.04343*%
%ADD126C,0.04343*%
%ADD127R,0.10642X0.05524*%
%ADD128O,0.10642X0.05524*%
%ADD129R,0.05906X0.05906*%
%ADD130C,0.12520*%
%ADD131O,0.04737X0.06800*%
%ADD132O,0.08474X0.05324*%
%ADD133O,0.08674X0.06706*%
%ADD134C,0.02572*%
%ADD135C,0.03950*%
%ADD136C,0.02572*%
G36*
X11971Y199405D02*
X11981Y199404D01*
X11991Y199403D01*
X12002Y199401D01*
X12012Y199399D01*
X12021Y199396D01*
X12031Y199392D01*
X12041Y199389D01*
X12050Y199384D01*
X12059Y199379D01*
X12068Y199374D01*
X12076Y199368D01*
X12084Y199362D01*
X12092Y199355D01*
X12100Y199348D01*
X12107Y199340D01*
X12114Y199332D01*
X12120Y199324D01*
X12126Y199316D01*
X12131Y199307D01*
X12136Y199298D01*
X12140Y199289D01*
X12144Y199279D01*
X12148Y199269D01*
X12151Y199260D01*
X12153Y199250D01*
X12155Y199240D01*
X12156Y199229D01*
X12157Y199219D01*
X12157Y199209D01*
Y196689D01*
X12157Y196679D01*
X12156Y196668D01*
X12155Y196658D01*
X12153Y196648D01*
X12151Y196638D01*
X12148Y196628D01*
X12144Y196618D01*
X12140Y196609D01*
X12136Y196600D01*
X12131Y196591D01*
X12126Y196582D01*
X12120Y196573D01*
X12114Y196565D01*
X12107Y196557D01*
X12100Y196550D01*
X12092Y196543D01*
X12084Y196536D01*
X12076Y196530D01*
X12068Y196524D01*
X12059Y196519D01*
X12050Y196514D01*
X12041Y196509D01*
X12031Y196505D01*
X12021Y196502D01*
X12012Y196499D01*
X12002Y196496D01*
X11991Y196495D01*
X11981Y196493D01*
X11971Y196492D01*
X11961Y196492D01*
X10819D01*
X10809Y196492D01*
X10798Y196493D01*
X10788Y196495D01*
X10778Y196496D01*
X10768Y196499D01*
X10758Y196502D01*
X10748Y196505D01*
X10739Y196509D01*
X10729Y196514D01*
X10721Y196519D01*
X10712Y196524D01*
X10703Y196530D01*
X10695Y196536D01*
X10687Y196543D01*
X10680Y196550D01*
X10673Y196557D01*
X10666Y196565D01*
X10660Y196573D01*
X10654Y196582D01*
X10648Y196591D01*
X10644Y196600D01*
X10639Y196609D01*
X10635Y196618D01*
X10632Y196628D01*
X10629Y196638D01*
X10626Y196648D01*
X10625Y196658D01*
X10623Y196668D01*
X10622Y196679D01*
X10622Y196689D01*
Y199209D01*
X10622Y199219D01*
X10623Y199229D01*
X10625Y199240D01*
X10626Y199250D01*
X10629Y199260D01*
X10632Y199269D01*
X10635Y199279D01*
X10639Y199289D01*
X10644Y199298D01*
X10648Y199307D01*
X10654Y199316D01*
X10660Y199324D01*
X10666Y199332D01*
X10673Y199340D01*
X10680Y199348D01*
X10687Y199355D01*
X10695Y199362D01*
X10703Y199368D01*
X10712Y199374D01*
X10721Y199379D01*
X10729Y199384D01*
X10739Y199389D01*
X10748Y199392D01*
X10758Y199396D01*
X10768Y199399D01*
X10778Y199401D01*
X10788Y199403D01*
X10798Y199404D01*
X10809Y199405D01*
X10819Y199406D01*
X11961D01*
X11971Y199405D01*
D02*
G37*
G36*
X10002D02*
X10013Y199404D01*
X10023Y199403D01*
X10033Y199401D01*
X10043Y199399D01*
X10053Y199396D01*
X10063Y199392D01*
X10072Y199389D01*
X10081Y199384D01*
X10091Y199379D01*
X10099Y199374D01*
X10108Y199368D01*
X10116Y199362D01*
X10124Y199355D01*
X10131Y199348D01*
X10138Y199340D01*
X10145Y199332D01*
X10151Y199324D01*
X10157Y199316D01*
X10163Y199307D01*
X10167Y199298D01*
X10172Y199289D01*
X10176Y199279D01*
X10179Y199269D01*
X10182Y199260D01*
X10185Y199250D01*
X10187Y199240D01*
X10188Y199229D01*
X10189Y199219D01*
X10189Y199209D01*
Y196689D01*
X10189Y196679D01*
X10188Y196668D01*
X10187Y196658D01*
X10185Y196648D01*
X10182Y196638D01*
X10179Y196628D01*
X10176Y196618D01*
X10172Y196609D01*
X10167Y196600D01*
X10163Y196591D01*
X10157Y196582D01*
X10151Y196573D01*
X10145Y196565D01*
X10138Y196557D01*
X10131Y196550D01*
X10124Y196543D01*
X10116Y196536D01*
X10108Y196530D01*
X10099Y196524D01*
X10091Y196519D01*
X10081Y196514D01*
X10072Y196509D01*
X10063Y196505D01*
X10053Y196502D01*
X10043Y196499D01*
X10033Y196496D01*
X10023Y196495D01*
X10013Y196493D01*
X10002Y196492D01*
X9992Y196492D01*
X8850D01*
X8840Y196492D01*
X8830Y196493D01*
X8820Y196495D01*
X8810Y196496D01*
X8800Y196499D01*
X8790Y196502D01*
X8780Y196505D01*
X8770Y196509D01*
X8761Y196514D01*
X8752Y196519D01*
X8743Y196524D01*
X8735Y196530D01*
X8726Y196536D01*
X8719Y196543D01*
X8711Y196550D01*
X8704Y196557D01*
X8697Y196565D01*
X8691Y196573D01*
X8685Y196582D01*
X8680Y196591D01*
X8675Y196600D01*
X8671Y196609D01*
X8667Y196618D01*
X8663Y196628D01*
X8660Y196638D01*
X8658Y196648D01*
X8656Y196658D01*
X8655Y196668D01*
X8654Y196679D01*
X8653Y196689D01*
Y199209D01*
X8654Y199219D01*
X8655Y199229D01*
X8656Y199240D01*
X8658Y199250D01*
X8660Y199260D01*
X8663Y199269D01*
X8667Y199279D01*
X8671Y199289D01*
X8675Y199298D01*
X8680Y199307D01*
X8685Y199316D01*
X8691Y199324D01*
X8697Y199332D01*
X8704Y199340D01*
X8711Y199348D01*
X8719Y199355D01*
X8726Y199362D01*
X8735Y199368D01*
X8743Y199374D01*
X8752Y199379D01*
X8761Y199384D01*
X8770Y199389D01*
X8780Y199392D01*
X8790Y199396D01*
X8800Y199399D01*
X8810Y199401D01*
X8820Y199403D01*
X8830Y199404D01*
X8840Y199405D01*
X8850Y199406D01*
X9992D01*
X10002Y199405D01*
D02*
G37*
G36*
X8034D02*
X8044Y199404D01*
X8054Y199403D01*
X8065Y199401D01*
X8075Y199399D01*
X8084Y199396D01*
X8094Y199392D01*
X8104Y199389D01*
X8113Y199384D01*
X8122Y199379D01*
X8131Y199374D01*
X8139Y199368D01*
X8147Y199362D01*
X8155Y199355D01*
X8163Y199348D01*
X8170Y199340D01*
X8177Y199332D01*
X8183Y199324D01*
X8189Y199316D01*
X8194Y199307D01*
X8199Y199298D01*
X8203Y199289D01*
X8207Y199279D01*
X8211Y199269D01*
X8214Y199260D01*
X8216Y199250D01*
X8218Y199240D01*
X8219Y199229D01*
X8220Y199219D01*
X8220Y199209D01*
Y196689D01*
X8220Y196679D01*
X8219Y196668D01*
X8218Y196658D01*
X8216Y196648D01*
X8214Y196638D01*
X8211Y196628D01*
X8207Y196618D01*
X8203Y196609D01*
X8199Y196600D01*
X8194Y196591D01*
X8189Y196582D01*
X8183Y196573D01*
X8177Y196565D01*
X8170Y196557D01*
X8163Y196550D01*
X8155Y196543D01*
X8147Y196536D01*
X8139Y196530D01*
X8131Y196524D01*
X8122Y196519D01*
X8113Y196514D01*
X8104Y196509D01*
X8094Y196505D01*
X8084Y196502D01*
X8075Y196499D01*
X8065Y196496D01*
X8054Y196495D01*
X8044Y196493D01*
X8034Y196492D01*
X8024Y196492D01*
X6882D01*
X6872Y196492D01*
X6861Y196493D01*
X6851Y196495D01*
X6841Y196496D01*
X6831Y196499D01*
X6821Y196502D01*
X6811Y196505D01*
X6802Y196509D01*
X6792Y196514D01*
X6784Y196519D01*
X6775Y196524D01*
X6766Y196530D01*
X6758Y196536D01*
X6750Y196543D01*
X6743Y196550D01*
X6736Y196557D01*
X6729Y196565D01*
X6723Y196573D01*
X6717Y196582D01*
X6711Y196591D01*
X6707Y196600D01*
X6702Y196609D01*
X6698Y196618D01*
X6695Y196628D01*
X6692Y196638D01*
X6689Y196648D01*
X6688Y196658D01*
X6686Y196668D01*
X6685Y196679D01*
X6685Y196689D01*
Y199209D01*
X6685Y199219D01*
X6686Y199229D01*
X6688Y199240D01*
X6689Y199250D01*
X6692Y199260D01*
X6695Y199269D01*
X6698Y199279D01*
X6702Y199289D01*
X6707Y199298D01*
X6711Y199307D01*
X6717Y199316D01*
X6723Y199324D01*
X6729Y199332D01*
X6736Y199340D01*
X6743Y199348D01*
X6750Y199355D01*
X6758Y199362D01*
X6766Y199368D01*
X6775Y199374D01*
X6784Y199379D01*
X6792Y199384D01*
X6802Y199389D01*
X6811Y199392D01*
X6821Y199396D01*
X6831Y199399D01*
X6841Y199401D01*
X6851Y199403D01*
X6861Y199404D01*
X6872Y199405D01*
X6882Y199406D01*
X8024D01*
X8034Y199405D01*
D02*
G37*
G36*
X6065D02*
X6076Y199404D01*
X6086Y199403D01*
X6096Y199401D01*
X6106Y199399D01*
X6116Y199396D01*
X6126Y199392D01*
X6135Y199389D01*
X6145Y199384D01*
X6154Y199379D01*
X6162Y199374D01*
X6171Y199368D01*
X6179Y199362D01*
X6187Y199355D01*
X6194Y199348D01*
X6201Y199340D01*
X6208Y199332D01*
X6214Y199324D01*
X6220Y199316D01*
X6226Y199307D01*
X6230Y199298D01*
X6235Y199289D01*
X6239Y199279D01*
X6242Y199269D01*
X6245Y199260D01*
X6248Y199250D01*
X6250Y199240D01*
X6251Y199229D01*
X6252Y199219D01*
X6252Y199209D01*
Y196689D01*
X6252Y196679D01*
X6251Y196668D01*
X6250Y196658D01*
X6248Y196648D01*
X6245Y196638D01*
X6242Y196628D01*
X6239Y196618D01*
X6235Y196609D01*
X6230Y196600D01*
X6226Y196591D01*
X6220Y196582D01*
X6214Y196573D01*
X6208Y196565D01*
X6201Y196557D01*
X6194Y196550D01*
X6187Y196543D01*
X6179Y196536D01*
X6171Y196530D01*
X6162Y196524D01*
X6154Y196519D01*
X6145Y196514D01*
X6135Y196509D01*
X6126Y196505D01*
X6116Y196502D01*
X6106Y196499D01*
X6096Y196496D01*
X6086Y196495D01*
X6076Y196493D01*
X6065Y196492D01*
X6055Y196492D01*
X4913D01*
X4903Y196492D01*
X4893Y196493D01*
X4883Y196495D01*
X4873Y196496D01*
X4862Y196499D01*
X4853Y196502D01*
X4843Y196505D01*
X4833Y196509D01*
X4824Y196514D01*
X4815Y196519D01*
X4806Y196524D01*
X4798Y196530D01*
X4789Y196536D01*
X4782Y196543D01*
X4774Y196550D01*
X4767Y196557D01*
X4760Y196565D01*
X4754Y196573D01*
X4748Y196582D01*
X4743Y196591D01*
X4738Y196600D01*
X4734Y196609D01*
X4730Y196618D01*
X4726Y196628D01*
X4723Y196638D01*
X4721Y196648D01*
X4719Y196658D01*
X4718Y196668D01*
X4717Y196679D01*
X4716Y196689D01*
Y199209D01*
X4717Y199219D01*
X4718Y199229D01*
X4719Y199240D01*
X4721Y199250D01*
X4723Y199260D01*
X4726Y199269D01*
X4730Y199279D01*
X4734Y199289D01*
X4738Y199298D01*
X4743Y199307D01*
X4748Y199316D01*
X4754Y199324D01*
X4760Y199332D01*
X4767Y199340D01*
X4774Y199348D01*
X4782Y199355D01*
X4789Y199362D01*
X4798Y199368D01*
X4806Y199374D01*
X4815Y199379D01*
X4824Y199384D01*
X4833Y199389D01*
X4843Y199392D01*
X4853Y199396D01*
X4862Y199399D01*
X4873Y199401D01*
X4883Y199403D01*
X4893Y199404D01*
X4903Y199405D01*
X4913Y199406D01*
X6055D01*
X6065Y199405D01*
D02*
G37*
G36*
X4097D02*
X4107Y199404D01*
X4117Y199403D01*
X4127Y199401D01*
X4138Y199399D01*
X4147Y199396D01*
X4157Y199392D01*
X4167Y199389D01*
X4176Y199384D01*
X4185Y199379D01*
X4194Y199374D01*
X4202Y199368D01*
X4211Y199362D01*
X4218Y199355D01*
X4226Y199348D01*
X4233Y199340D01*
X4240Y199332D01*
X4246Y199324D01*
X4252Y199316D01*
X4257Y199307D01*
X4262Y199298D01*
X4266Y199289D01*
X4270Y199279D01*
X4274Y199269D01*
X4277Y199260D01*
X4279Y199250D01*
X4281Y199240D01*
X4282Y199229D01*
X4283Y199219D01*
X4284Y199209D01*
Y196689D01*
X4283Y196679D01*
X4282Y196668D01*
X4281Y196658D01*
X4279Y196648D01*
X4277Y196638D01*
X4274Y196628D01*
X4270Y196618D01*
X4266Y196609D01*
X4262Y196600D01*
X4257Y196591D01*
X4252Y196582D01*
X4246Y196573D01*
X4240Y196565D01*
X4233Y196557D01*
X4226Y196550D01*
X4218Y196543D01*
X4211Y196536D01*
X4202Y196530D01*
X4194Y196524D01*
X4185Y196519D01*
X4176Y196514D01*
X4167Y196509D01*
X4157Y196505D01*
X4147Y196502D01*
X4138Y196499D01*
X4127Y196496D01*
X4117Y196495D01*
X4107Y196493D01*
X4097Y196492D01*
X4087Y196492D01*
X2945D01*
X2935Y196492D01*
X2924Y196493D01*
X2914Y196495D01*
X2904Y196496D01*
X2894Y196499D01*
X2884Y196502D01*
X2874Y196505D01*
X2865Y196509D01*
X2856Y196514D01*
X2847Y196519D01*
X2838Y196524D01*
X2829Y196530D01*
X2821Y196536D01*
X2813Y196543D01*
X2806Y196550D01*
X2799Y196557D01*
X2792Y196565D01*
X2786Y196573D01*
X2780Y196582D01*
X2774Y196591D01*
X2770Y196600D01*
X2765Y196609D01*
X2761Y196618D01*
X2758Y196628D01*
X2755Y196638D01*
X2752Y196648D01*
X2750Y196658D01*
X2749Y196668D01*
X2748Y196679D01*
X2748Y196689D01*
Y199209D01*
X2748Y199219D01*
X2749Y199229D01*
X2750Y199240D01*
X2752Y199250D01*
X2755Y199260D01*
X2758Y199269D01*
X2761Y199279D01*
X2765Y199289D01*
X2770Y199298D01*
X2774Y199307D01*
X2780Y199316D01*
X2786Y199324D01*
X2792Y199332D01*
X2799Y199340D01*
X2806Y199348D01*
X2813Y199355D01*
X2821Y199362D01*
X2829Y199368D01*
X2838Y199374D01*
X2847Y199379D01*
X2856Y199384D01*
X2865Y199389D01*
X2874Y199392D01*
X2884Y199396D01*
X2894Y199399D01*
X2904Y199401D01*
X2914Y199403D01*
X2924Y199404D01*
X2935Y199405D01*
X2945Y199406D01*
X4087D01*
X4097Y199405D01*
D02*
G37*
G36*
X2128D02*
X2139Y199404D01*
X2149Y199403D01*
X2159Y199401D01*
X2169Y199399D01*
X2179Y199396D01*
X2189Y199392D01*
X2198Y199389D01*
X2207Y199384D01*
X2217Y199379D01*
X2225Y199374D01*
X2234Y199368D01*
X2242Y199362D01*
X2250Y199355D01*
X2257Y199348D01*
X2264Y199340D01*
X2271Y199332D01*
X2277Y199324D01*
X2283Y199316D01*
X2289Y199307D01*
X2293Y199298D01*
X2298Y199289D01*
X2302Y199279D01*
X2305Y199269D01*
X2308Y199260D01*
X2311Y199250D01*
X2313Y199240D01*
X2314Y199229D01*
X2315Y199219D01*
X2315Y199209D01*
Y196689D01*
X2315Y196679D01*
X2314Y196668D01*
X2313Y196658D01*
X2311Y196648D01*
X2308Y196638D01*
X2305Y196628D01*
X2302Y196618D01*
X2298Y196609D01*
X2293Y196600D01*
X2289Y196591D01*
X2283Y196582D01*
X2277Y196573D01*
X2271Y196565D01*
X2264Y196557D01*
X2257Y196550D01*
X2250Y196543D01*
X2242Y196536D01*
X2234Y196530D01*
X2225Y196524D01*
X2217Y196519D01*
X2207Y196514D01*
X2198Y196509D01*
X2189Y196505D01*
X2179Y196502D01*
X2169Y196499D01*
X2159Y196496D01*
X2149Y196495D01*
X2139Y196493D01*
X2128Y196492D01*
X2118Y196492D01*
X976D01*
X966Y196492D01*
X956Y196493D01*
X946Y196495D01*
X935Y196496D01*
X925Y196499D01*
X915Y196502D01*
X906Y196505D01*
X896Y196509D01*
X887Y196514D01*
X878Y196519D01*
X869Y196524D01*
X861Y196530D01*
X852Y196536D01*
X845Y196543D01*
X837Y196550D01*
X830Y196557D01*
X823Y196565D01*
X817Y196573D01*
X811Y196582D01*
X806Y196591D01*
X801Y196600D01*
X797Y196609D01*
X793Y196618D01*
X789Y196628D01*
X786Y196638D01*
X784Y196648D01*
X782Y196658D01*
X781Y196668D01*
X780Y196679D01*
X779Y196689D01*
Y199209D01*
X780Y199219D01*
X781Y199229D01*
X782Y199240D01*
X784Y199250D01*
X786Y199260D01*
X789Y199269D01*
X793Y199279D01*
X797Y199289D01*
X801Y199298D01*
X806Y199307D01*
X811Y199316D01*
X817Y199324D01*
X823Y199332D01*
X830Y199340D01*
X837Y199348D01*
X845Y199355D01*
X852Y199362D01*
X861Y199368D01*
X869Y199374D01*
X878Y199379D01*
X887Y199384D01*
X896Y199389D01*
X906Y199392D01*
X915Y199396D01*
X925Y199399D01*
X935Y199401D01*
X946Y199403D01*
X956Y199404D01*
X966Y199405D01*
X976Y199406D01*
X2118D01*
X2128Y199405D01*
D02*
G37*
G36*
X160D02*
X170Y199404D01*
X180Y199403D01*
X190Y199401D01*
X201Y199399D01*
X210Y199396D01*
X220Y199392D01*
X230Y199389D01*
X239Y199384D01*
X248Y199379D01*
X257Y199374D01*
X265Y199368D01*
X274Y199362D01*
X281Y199355D01*
X289Y199348D01*
X296Y199340D01*
X303Y199332D01*
X309Y199324D01*
X315Y199316D01*
X320Y199307D01*
X325Y199298D01*
X329Y199289D01*
X333Y199279D01*
X337Y199269D01*
X340Y199260D01*
X342Y199250D01*
X344Y199240D01*
X345Y199229D01*
X346Y199219D01*
X347Y199209D01*
Y196689D01*
X346Y196679D01*
X345Y196668D01*
X344Y196658D01*
X342Y196648D01*
X340Y196638D01*
X337Y196628D01*
X333Y196618D01*
X329Y196609D01*
X325Y196600D01*
X320Y196591D01*
X315Y196582D01*
X309Y196573D01*
X303Y196565D01*
X296Y196557D01*
X289Y196550D01*
X281Y196543D01*
X274Y196536D01*
X265Y196530D01*
X257Y196524D01*
X248Y196519D01*
X239Y196514D01*
X230Y196509D01*
X220Y196505D01*
X210Y196502D01*
X201Y196499D01*
X190Y196496D01*
X180Y196495D01*
X170Y196493D01*
X160Y196492D01*
X150Y196492D01*
X-992D01*
X-1002Y196492D01*
X-1013Y196493D01*
X-1023Y196495D01*
X-1033Y196496D01*
X-1043Y196499D01*
X-1053Y196502D01*
X-1063Y196505D01*
X-1072Y196509D01*
X-1082Y196514D01*
X-1091Y196519D01*
X-1099Y196524D01*
X-1108Y196530D01*
X-1116Y196536D01*
X-1124Y196543D01*
X-1131Y196550D01*
X-1138Y196557D01*
X-1145Y196565D01*
X-1151Y196573D01*
X-1157Y196582D01*
X-1163Y196591D01*
X-1168Y196600D01*
X-1172Y196609D01*
X-1176Y196618D01*
X-1179Y196628D01*
X-1182Y196638D01*
X-1185Y196648D01*
X-1187Y196658D01*
X-1188Y196668D01*
X-1189Y196679D01*
X-1189Y196689D01*
Y199209D01*
X-1189Y199219D01*
X-1188Y199229D01*
X-1187Y199240D01*
X-1185Y199250D01*
X-1182Y199260D01*
X-1179Y199269D01*
X-1176Y199279D01*
X-1172Y199289D01*
X-1168Y199298D01*
X-1163Y199307D01*
X-1157Y199316D01*
X-1151Y199324D01*
X-1145Y199332D01*
X-1138Y199340D01*
X-1131Y199348D01*
X-1124Y199355D01*
X-1116Y199362D01*
X-1108Y199368D01*
X-1099Y199374D01*
X-1091Y199379D01*
X-1082Y199384D01*
X-1072Y199389D01*
X-1063Y199392D01*
X-1053Y199396D01*
X-1043Y199399D01*
X-1033Y199401D01*
X-1023Y199403D01*
X-1013Y199404D01*
X-1002Y199405D01*
X-992Y199406D01*
X150D01*
X160Y199405D01*
D02*
G37*
G36*
X-1809D02*
X-1798Y199404D01*
X-1788Y199403D01*
X-1778Y199401D01*
X-1768Y199399D01*
X-1758Y199396D01*
X-1748Y199392D01*
X-1739Y199389D01*
X-1729Y199384D01*
X-1720Y199379D01*
X-1712Y199374D01*
X-1703Y199368D01*
X-1695Y199362D01*
X-1687Y199355D01*
X-1680Y199348D01*
X-1673Y199340D01*
X-1666Y199332D01*
X-1660Y199324D01*
X-1654Y199316D01*
X-1648Y199307D01*
X-1643Y199298D01*
X-1639Y199289D01*
X-1635Y199279D01*
X-1632Y199269D01*
X-1629Y199260D01*
X-1626Y199250D01*
X-1625Y199240D01*
X-1623Y199229D01*
X-1622Y199219D01*
X-1622Y199209D01*
Y196689D01*
X-1622Y196679D01*
X-1623Y196668D01*
X-1625Y196658D01*
X-1626Y196648D01*
X-1629Y196638D01*
X-1632Y196628D01*
X-1635Y196618D01*
X-1639Y196609D01*
X-1643Y196600D01*
X-1648Y196591D01*
X-1654Y196582D01*
X-1660Y196573D01*
X-1666Y196565D01*
X-1673Y196557D01*
X-1680Y196550D01*
X-1687Y196543D01*
X-1695Y196536D01*
X-1703Y196530D01*
X-1712Y196524D01*
X-1720Y196519D01*
X-1729Y196514D01*
X-1739Y196509D01*
X-1748Y196505D01*
X-1758Y196502D01*
X-1768Y196499D01*
X-1778Y196496D01*
X-1788Y196495D01*
X-1798Y196493D01*
X-1809Y196492D01*
X-1819Y196492D01*
X-2961D01*
X-2971Y196492D01*
X-2981Y196493D01*
X-2991Y196495D01*
X-3002Y196496D01*
X-3012Y196499D01*
X-3022Y196502D01*
X-3031Y196505D01*
X-3041Y196509D01*
X-3050Y196514D01*
X-3059Y196519D01*
X-3068Y196524D01*
X-3076Y196530D01*
X-3084Y196536D01*
X-3092Y196543D01*
X-3100Y196550D01*
X-3107Y196557D01*
X-3114Y196565D01*
X-3120Y196573D01*
X-3126Y196582D01*
X-3131Y196591D01*
X-3136Y196600D01*
X-3140Y196609D01*
X-3144Y196618D01*
X-3148Y196628D01*
X-3151Y196638D01*
X-3153Y196648D01*
X-3155Y196658D01*
X-3156Y196668D01*
X-3157Y196679D01*
X-3158Y196689D01*
Y199209D01*
X-3157Y199219D01*
X-3156Y199229D01*
X-3155Y199240D01*
X-3153Y199250D01*
X-3151Y199260D01*
X-3148Y199269D01*
X-3144Y199279D01*
X-3140Y199289D01*
X-3136Y199298D01*
X-3131Y199307D01*
X-3126Y199316D01*
X-3120Y199324D01*
X-3114Y199332D01*
X-3107Y199340D01*
X-3100Y199348D01*
X-3092Y199355D01*
X-3084Y199362D01*
X-3076Y199368D01*
X-3068Y199374D01*
X-3059Y199379D01*
X-3050Y199384D01*
X-3041Y199389D01*
X-3031Y199392D01*
X-3022Y199396D01*
X-3012Y199399D01*
X-3002Y199401D01*
X-2991Y199403D01*
X-2981Y199404D01*
X-2971Y199405D01*
X-2961Y199406D01*
X-1819D01*
X-1809Y199405D01*
D02*
G37*
G36*
X15219Y196157D02*
X15229Y196156D01*
X15239Y196155D01*
X15250Y196153D01*
X15260Y196151D01*
X15270Y196148D01*
X15279Y196144D01*
X15289Y196141D01*
X15298Y196136D01*
X15307Y196131D01*
X15316Y196126D01*
X15324Y196120D01*
X15333Y196114D01*
X15340Y196107D01*
X15348Y196100D01*
X15355Y196092D01*
X15362Y196084D01*
X15368Y196076D01*
X15374Y196068D01*
X15379Y196059D01*
X15384Y196050D01*
X15389Y196041D01*
X15392Y196031D01*
X15396Y196021D01*
X15399Y196012D01*
X15401Y196002D01*
X15403Y195991D01*
X15404Y195981D01*
X15405Y195971D01*
X15405Y195961D01*
Y194819D01*
X15405Y194809D01*
X15404Y194798D01*
X15403Y194788D01*
X15401Y194778D01*
X15399Y194768D01*
X15396Y194758D01*
X15392Y194748D01*
X15389Y194739D01*
X15384Y194729D01*
X15379Y194720D01*
X15374Y194712D01*
X15368Y194703D01*
X15362Y194695D01*
X15355Y194687D01*
X15348Y194680D01*
X15340Y194673D01*
X15333Y194666D01*
X15324Y194660D01*
X15316Y194654D01*
X15307Y194648D01*
X15298Y194643D01*
X15289Y194639D01*
X15279Y194635D01*
X15270Y194632D01*
X15260Y194629D01*
X15250Y194626D01*
X15239Y194624D01*
X15229Y194623D01*
X15219Y194622D01*
X15209Y194622D01*
X12689D01*
X12679Y194622D01*
X12668Y194623D01*
X12658Y194624D01*
X12648Y194626D01*
X12638Y194629D01*
X12628Y194632D01*
X12618Y194635D01*
X12609Y194639D01*
X12600Y194643D01*
X12591Y194648D01*
X12582Y194654D01*
X12573Y194660D01*
X12565Y194666D01*
X12557Y194673D01*
X12550Y194680D01*
X12543Y194687D01*
X12536Y194695D01*
X12530Y194703D01*
X12524Y194712D01*
X12518Y194720D01*
X12514Y194729D01*
X12509Y194739D01*
X12505Y194748D01*
X12502Y194758D01*
X12499Y194768D01*
X12496Y194778D01*
X12494Y194788D01*
X12493Y194798D01*
X12492Y194809D01*
X12492Y194819D01*
Y195961D01*
X12492Y195971D01*
X12493Y195981D01*
X12494Y195991D01*
X12496Y196002D01*
X12499Y196012D01*
X12502Y196021D01*
X12505Y196031D01*
X12509Y196041D01*
X12514Y196050D01*
X12518Y196059D01*
X12524Y196068D01*
X12530Y196076D01*
X12536Y196084D01*
X12543Y196092D01*
X12550Y196100D01*
X12557Y196107D01*
X12565Y196114D01*
X12573Y196120D01*
X12582Y196126D01*
X12591Y196131D01*
X12600Y196136D01*
X12609Y196141D01*
X12618Y196144D01*
X12628Y196148D01*
X12638Y196151D01*
X12648Y196153D01*
X12658Y196155D01*
X12668Y196156D01*
X12679Y196157D01*
X12689Y196158D01*
X15209D01*
X15219Y196157D01*
D02*
G37*
G36*
X-3679D02*
X-3668Y196156D01*
X-3658Y196155D01*
X-3648Y196153D01*
X-3638Y196151D01*
X-3628Y196148D01*
X-3618Y196144D01*
X-3609Y196141D01*
X-3600Y196136D01*
X-3591Y196131D01*
X-3582Y196126D01*
X-3573Y196120D01*
X-3565Y196114D01*
X-3557Y196107D01*
X-3550Y196100D01*
X-3543Y196092D01*
X-3536Y196084D01*
X-3530Y196076D01*
X-3524Y196068D01*
X-3519Y196059D01*
X-3514Y196050D01*
X-3509Y196041D01*
X-3505Y196031D01*
X-3502Y196021D01*
X-3499Y196012D01*
X-3496Y196002D01*
X-3495Y195991D01*
X-3493Y195981D01*
X-3492Y195971D01*
X-3492Y195961D01*
Y194819D01*
X-3492Y194809D01*
X-3493Y194798D01*
X-3495Y194788D01*
X-3496Y194778D01*
X-3499Y194768D01*
X-3502Y194758D01*
X-3505Y194748D01*
X-3509Y194739D01*
X-3514Y194729D01*
X-3519Y194720D01*
X-3524Y194712D01*
X-3530Y194703D01*
X-3536Y194695D01*
X-3543Y194687D01*
X-3550Y194680D01*
X-3557Y194673D01*
X-3565Y194666D01*
X-3573Y194660D01*
X-3582Y194654D01*
X-3591Y194648D01*
X-3600Y194643D01*
X-3609Y194639D01*
X-3618Y194635D01*
X-3628Y194632D01*
X-3638Y194629D01*
X-3648Y194626D01*
X-3658Y194624D01*
X-3668Y194623D01*
X-3679Y194622D01*
X-3689Y194622D01*
X-6209D01*
X-6219Y194622D01*
X-6229Y194623D01*
X-6239Y194624D01*
X-6250Y194626D01*
X-6260Y194629D01*
X-6269Y194632D01*
X-6279Y194635D01*
X-6289Y194639D01*
X-6298Y194643D01*
X-6307Y194648D01*
X-6316Y194654D01*
X-6324Y194660D01*
X-6333Y194666D01*
X-6340Y194673D01*
X-6348Y194680D01*
X-6355Y194687D01*
X-6362Y194695D01*
X-6368Y194703D01*
X-6374Y194712D01*
X-6379Y194720D01*
X-6384Y194729D01*
X-6389Y194739D01*
X-6392Y194748D01*
X-6396Y194758D01*
X-6399Y194768D01*
X-6401Y194778D01*
X-6403Y194788D01*
X-6404Y194798D01*
X-6405Y194809D01*
X-6406Y194819D01*
Y195961D01*
X-6405Y195971D01*
X-6404Y195981D01*
X-6403Y195991D01*
X-6401Y196002D01*
X-6399Y196012D01*
X-6396Y196021D01*
X-6392Y196031D01*
X-6389Y196041D01*
X-6384Y196050D01*
X-6379Y196059D01*
X-6374Y196068D01*
X-6368Y196076D01*
X-6362Y196084D01*
X-6355Y196092D01*
X-6348Y196100D01*
X-6340Y196107D01*
X-6333Y196114D01*
X-6324Y196120D01*
X-6316Y196126D01*
X-6307Y196131D01*
X-6298Y196136D01*
X-6289Y196141D01*
X-6279Y196144D01*
X-6269Y196148D01*
X-6260Y196151D01*
X-6250Y196153D01*
X-6239Y196155D01*
X-6229Y196156D01*
X-6219Y196157D01*
X-6209Y196158D01*
X-3689D01*
X-3679Y196157D01*
D02*
G37*
G36*
X15219Y194189D02*
X15229Y194188D01*
X15239Y194187D01*
X15250Y194185D01*
X15260Y194182D01*
X15270Y194179D01*
X15279Y194176D01*
X15289Y194172D01*
X15298Y194167D01*
X15307Y194163D01*
X15316Y194157D01*
X15324Y194151D01*
X15333Y194145D01*
X15340Y194138D01*
X15348Y194131D01*
X15355Y194124D01*
X15362Y194116D01*
X15368Y194108D01*
X15374Y194099D01*
X15379Y194091D01*
X15384Y194081D01*
X15389Y194072D01*
X15392Y194063D01*
X15396Y194053D01*
X15399Y194043D01*
X15401Y194033D01*
X15403Y194023D01*
X15404Y194013D01*
X15405Y194002D01*
X15405Y193992D01*
Y192850D01*
X15405Y192840D01*
X15404Y192830D01*
X15403Y192820D01*
X15401Y192809D01*
X15399Y192799D01*
X15396Y192790D01*
X15392Y192780D01*
X15389Y192770D01*
X15384Y192761D01*
X15379Y192752D01*
X15374Y192743D01*
X15368Y192735D01*
X15362Y192727D01*
X15355Y192719D01*
X15348Y192711D01*
X15340Y192704D01*
X15333Y192697D01*
X15324Y192691D01*
X15316Y192685D01*
X15307Y192680D01*
X15298Y192675D01*
X15289Y192671D01*
X15279Y192667D01*
X15270Y192663D01*
X15260Y192660D01*
X15250Y192658D01*
X15239Y192656D01*
X15229Y192655D01*
X15219Y192654D01*
X15209Y192654D01*
X12689D01*
X12679Y192654D01*
X12668Y192655D01*
X12658Y192656D01*
X12648Y192658D01*
X12638Y192660D01*
X12628Y192663D01*
X12618Y192667D01*
X12609Y192671D01*
X12600Y192675D01*
X12591Y192680D01*
X12582Y192685D01*
X12573Y192691D01*
X12565Y192697D01*
X12557Y192704D01*
X12550Y192711D01*
X12543Y192719D01*
X12536Y192727D01*
X12530Y192735D01*
X12524Y192743D01*
X12518Y192752D01*
X12514Y192761D01*
X12509Y192770D01*
X12505Y192780D01*
X12502Y192790D01*
X12499Y192799D01*
X12496Y192809D01*
X12494Y192820D01*
X12493Y192830D01*
X12492Y192840D01*
X12492Y192850D01*
Y193992D01*
X12492Y194002D01*
X12493Y194013D01*
X12494Y194023D01*
X12496Y194033D01*
X12499Y194043D01*
X12502Y194053D01*
X12505Y194063D01*
X12509Y194072D01*
X12514Y194081D01*
X12518Y194091D01*
X12524Y194099D01*
X12530Y194108D01*
X12536Y194116D01*
X12543Y194124D01*
X12550Y194131D01*
X12557Y194138D01*
X12565Y194145D01*
X12573Y194151D01*
X12582Y194157D01*
X12591Y194163D01*
X12600Y194167D01*
X12609Y194172D01*
X12618Y194176D01*
X12628Y194179D01*
X12638Y194182D01*
X12648Y194185D01*
X12658Y194187D01*
X12668Y194188D01*
X12679Y194189D01*
X12689Y194189D01*
X15209D01*
X15219Y194189D01*
D02*
G37*
G36*
X-3679D02*
X-3668Y194188D01*
X-3658Y194187D01*
X-3648Y194185D01*
X-3638Y194182D01*
X-3628Y194179D01*
X-3618Y194176D01*
X-3609Y194172D01*
X-3600Y194167D01*
X-3591Y194163D01*
X-3582Y194157D01*
X-3573Y194151D01*
X-3565Y194145D01*
X-3557Y194138D01*
X-3550Y194131D01*
X-3543Y194124D01*
X-3536Y194116D01*
X-3530Y194108D01*
X-3524Y194099D01*
X-3519Y194091D01*
X-3514Y194081D01*
X-3509Y194072D01*
X-3505Y194063D01*
X-3502Y194053D01*
X-3499Y194043D01*
X-3496Y194033D01*
X-3495Y194023D01*
X-3493Y194013D01*
X-3492Y194002D01*
X-3492Y193992D01*
Y192850D01*
X-3492Y192840D01*
X-3493Y192830D01*
X-3495Y192820D01*
X-3496Y192809D01*
X-3499Y192799D01*
X-3502Y192790D01*
X-3505Y192780D01*
X-3509Y192770D01*
X-3514Y192761D01*
X-3519Y192752D01*
X-3524Y192743D01*
X-3530Y192735D01*
X-3536Y192727D01*
X-3543Y192719D01*
X-3550Y192711D01*
X-3557Y192704D01*
X-3565Y192697D01*
X-3573Y192691D01*
X-3582Y192685D01*
X-3591Y192680D01*
X-3600Y192675D01*
X-3609Y192671D01*
X-3618Y192667D01*
X-3628Y192663D01*
X-3638Y192660D01*
X-3648Y192658D01*
X-3658Y192656D01*
X-3668Y192655D01*
X-3679Y192654D01*
X-3689Y192654D01*
X-6209D01*
X-6219Y192654D01*
X-6229Y192655D01*
X-6239Y192656D01*
X-6250Y192658D01*
X-6260Y192660D01*
X-6269Y192663D01*
X-6279Y192667D01*
X-6289Y192671D01*
X-6298Y192675D01*
X-6307Y192680D01*
X-6316Y192685D01*
X-6324Y192691D01*
X-6333Y192697D01*
X-6340Y192704D01*
X-6348Y192711D01*
X-6355Y192719D01*
X-6362Y192727D01*
X-6368Y192735D01*
X-6374Y192743D01*
X-6379Y192752D01*
X-6384Y192761D01*
X-6389Y192770D01*
X-6392Y192780D01*
X-6396Y192790D01*
X-6399Y192799D01*
X-6401Y192809D01*
X-6403Y192820D01*
X-6404Y192830D01*
X-6405Y192840D01*
X-6406Y192850D01*
Y193992D01*
X-6405Y194002D01*
X-6404Y194013D01*
X-6403Y194023D01*
X-6401Y194033D01*
X-6399Y194043D01*
X-6396Y194053D01*
X-6392Y194063D01*
X-6389Y194072D01*
X-6384Y194081D01*
X-6379Y194091D01*
X-6374Y194099D01*
X-6368Y194108D01*
X-6362Y194116D01*
X-6355Y194124D01*
X-6348Y194131D01*
X-6340Y194138D01*
X-6333Y194145D01*
X-6324Y194151D01*
X-6316Y194157D01*
X-6307Y194163D01*
X-6298Y194167D01*
X-6289Y194172D01*
X-6279Y194176D01*
X-6269Y194179D01*
X-6260Y194182D01*
X-6250Y194185D01*
X-6239Y194187D01*
X-6229Y194188D01*
X-6219Y194189D01*
X-6209Y194189D01*
X-3689D01*
X-3679Y194189D01*
D02*
G37*
G36*
X15219Y192220D02*
X15229Y192219D01*
X15239Y192218D01*
X15250Y192216D01*
X15260Y192214D01*
X15270Y192211D01*
X15279Y192207D01*
X15289Y192203D01*
X15298Y192199D01*
X15307Y192194D01*
X15316Y192189D01*
X15324Y192183D01*
X15333Y192177D01*
X15340Y192170D01*
X15348Y192163D01*
X15355Y192155D01*
X15362Y192148D01*
X15368Y192139D01*
X15374Y192131D01*
X15379Y192122D01*
X15384Y192113D01*
X15389Y192104D01*
X15392Y192094D01*
X15396Y192084D01*
X15399Y192075D01*
X15401Y192065D01*
X15403Y192054D01*
X15404Y192044D01*
X15405Y192034D01*
X15405Y192024D01*
Y190882D01*
X15405Y190872D01*
X15404Y190861D01*
X15403Y190851D01*
X15401Y190841D01*
X15399Y190831D01*
X15396Y190821D01*
X15392Y190811D01*
X15389Y190802D01*
X15384Y190793D01*
X15379Y190784D01*
X15374Y190775D01*
X15368Y190766D01*
X15362Y190758D01*
X15355Y190750D01*
X15348Y190743D01*
X15340Y190736D01*
X15333Y190729D01*
X15324Y190723D01*
X15316Y190717D01*
X15307Y190711D01*
X15298Y190707D01*
X15289Y190702D01*
X15279Y190698D01*
X15270Y190695D01*
X15260Y190692D01*
X15250Y190689D01*
X15239Y190688D01*
X15229Y190686D01*
X15219Y190685D01*
X15209Y190685D01*
X12689D01*
X12679Y190685D01*
X12668Y190686D01*
X12658Y190688D01*
X12648Y190689D01*
X12638Y190692D01*
X12628Y190695D01*
X12618Y190698D01*
X12609Y190702D01*
X12600Y190707D01*
X12591Y190711D01*
X12582Y190717D01*
X12573Y190723D01*
X12565Y190729D01*
X12557Y190736D01*
X12550Y190743D01*
X12543Y190750D01*
X12536Y190758D01*
X12530Y190766D01*
X12524Y190775D01*
X12518Y190784D01*
X12514Y190793D01*
X12509Y190802D01*
X12505Y190811D01*
X12502Y190821D01*
X12499Y190831D01*
X12496Y190841D01*
X12494Y190851D01*
X12493Y190861D01*
X12492Y190872D01*
X12492Y190882D01*
Y192024D01*
X12492Y192034D01*
X12493Y192044D01*
X12494Y192054D01*
X12496Y192065D01*
X12499Y192075D01*
X12502Y192084D01*
X12505Y192094D01*
X12509Y192104D01*
X12514Y192113D01*
X12518Y192122D01*
X12524Y192131D01*
X12530Y192139D01*
X12536Y192148D01*
X12543Y192155D01*
X12550Y192163D01*
X12557Y192170D01*
X12565Y192177D01*
X12573Y192183D01*
X12582Y192189D01*
X12591Y192194D01*
X12600Y192199D01*
X12609Y192203D01*
X12618Y192207D01*
X12628Y192211D01*
X12638Y192214D01*
X12648Y192216D01*
X12658Y192218D01*
X12668Y192219D01*
X12679Y192220D01*
X12689Y192220D01*
X15209D01*
X15219Y192220D01*
D02*
G37*
G36*
X-3679D02*
X-3668Y192219D01*
X-3658Y192218D01*
X-3648Y192216D01*
X-3638Y192214D01*
X-3628Y192211D01*
X-3618Y192207D01*
X-3609Y192203D01*
X-3600Y192199D01*
X-3591Y192194D01*
X-3582Y192189D01*
X-3573Y192183D01*
X-3565Y192177D01*
X-3557Y192170D01*
X-3550Y192163D01*
X-3543Y192155D01*
X-3536Y192148D01*
X-3530Y192139D01*
X-3524Y192131D01*
X-3519Y192122D01*
X-3514Y192113D01*
X-3509Y192104D01*
X-3505Y192094D01*
X-3502Y192084D01*
X-3499Y192075D01*
X-3496Y192065D01*
X-3495Y192054D01*
X-3493Y192044D01*
X-3492Y192034D01*
X-3492Y192024D01*
Y190882D01*
X-3492Y190872D01*
X-3493Y190861D01*
X-3495Y190851D01*
X-3496Y190841D01*
X-3499Y190831D01*
X-3502Y190821D01*
X-3505Y190811D01*
X-3509Y190802D01*
X-3514Y190793D01*
X-3519Y190784D01*
X-3524Y190775D01*
X-3530Y190766D01*
X-3536Y190758D01*
X-3543Y190750D01*
X-3550Y190743D01*
X-3557Y190736D01*
X-3565Y190729D01*
X-3573Y190723D01*
X-3582Y190717D01*
X-3591Y190711D01*
X-3600Y190707D01*
X-3609Y190702D01*
X-3618Y190698D01*
X-3628Y190695D01*
X-3638Y190692D01*
X-3648Y190689D01*
X-3658Y190688D01*
X-3668Y190686D01*
X-3679Y190685D01*
X-3689Y190685D01*
X-6209D01*
X-6219Y190685D01*
X-6229Y190686D01*
X-6239Y190688D01*
X-6250Y190689D01*
X-6260Y190692D01*
X-6269Y190695D01*
X-6279Y190698D01*
X-6289Y190702D01*
X-6298Y190707D01*
X-6307Y190711D01*
X-6316Y190717D01*
X-6324Y190723D01*
X-6333Y190729D01*
X-6340Y190736D01*
X-6348Y190743D01*
X-6355Y190750D01*
X-6362Y190758D01*
X-6368Y190766D01*
X-6374Y190775D01*
X-6379Y190784D01*
X-6384Y190793D01*
X-6389Y190802D01*
X-6392Y190811D01*
X-6396Y190821D01*
X-6399Y190831D01*
X-6401Y190841D01*
X-6403Y190851D01*
X-6404Y190861D01*
X-6405Y190872D01*
X-6406Y190882D01*
Y192024D01*
X-6405Y192034D01*
X-6404Y192044D01*
X-6403Y192054D01*
X-6401Y192065D01*
X-6399Y192075D01*
X-6396Y192084D01*
X-6392Y192094D01*
X-6389Y192104D01*
X-6384Y192113D01*
X-6379Y192122D01*
X-6374Y192131D01*
X-6368Y192139D01*
X-6362Y192148D01*
X-6355Y192155D01*
X-6348Y192163D01*
X-6340Y192170D01*
X-6333Y192177D01*
X-6324Y192183D01*
X-6316Y192189D01*
X-6307Y192194D01*
X-6298Y192199D01*
X-6289Y192203D01*
X-6279Y192207D01*
X-6269Y192211D01*
X-6260Y192214D01*
X-6250Y192216D01*
X-6239Y192218D01*
X-6229Y192219D01*
X-6219Y192220D01*
X-6209Y192220D01*
X-3689D01*
X-3679Y192220D01*
D02*
G37*
G36*
X15219Y190252D02*
X15229Y190251D01*
X15239Y190250D01*
X15250Y190248D01*
X15260Y190245D01*
X15270Y190242D01*
X15279Y190239D01*
X15289Y190235D01*
X15298Y190231D01*
X15307Y190226D01*
X15316Y190220D01*
X15324Y190214D01*
X15333Y190208D01*
X15340Y190201D01*
X15348Y190194D01*
X15355Y190187D01*
X15362Y190179D01*
X15368Y190171D01*
X15374Y190162D01*
X15379Y190154D01*
X15384Y190145D01*
X15389Y190135D01*
X15392Y190126D01*
X15396Y190116D01*
X15399Y190106D01*
X15401Y190096D01*
X15403Y190086D01*
X15404Y190076D01*
X15405Y190065D01*
X15405Y190055D01*
Y188913D01*
X15405Y188903D01*
X15404Y188893D01*
X15403Y188883D01*
X15401Y188873D01*
X15399Y188862D01*
X15396Y188853D01*
X15392Y188843D01*
X15389Y188833D01*
X15384Y188824D01*
X15379Y188815D01*
X15374Y188806D01*
X15368Y188798D01*
X15362Y188789D01*
X15355Y188782D01*
X15348Y188774D01*
X15340Y188767D01*
X15333Y188760D01*
X15324Y188754D01*
X15316Y188748D01*
X15307Y188743D01*
X15298Y188738D01*
X15289Y188733D01*
X15279Y188730D01*
X15270Y188726D01*
X15260Y188723D01*
X15250Y188721D01*
X15239Y188719D01*
X15229Y188718D01*
X15219Y188717D01*
X15209Y188716D01*
X12689D01*
X12679Y188717D01*
X12668Y188718D01*
X12658Y188719D01*
X12648Y188721D01*
X12638Y188723D01*
X12628Y188726D01*
X12618Y188730D01*
X12609Y188733D01*
X12600Y188738D01*
X12591Y188743D01*
X12582Y188748D01*
X12573Y188754D01*
X12565Y188760D01*
X12557Y188767D01*
X12550Y188774D01*
X12543Y188782D01*
X12536Y188789D01*
X12530Y188798D01*
X12524Y188806D01*
X12518Y188815D01*
X12514Y188824D01*
X12509Y188833D01*
X12505Y188843D01*
X12502Y188853D01*
X12499Y188862D01*
X12496Y188873D01*
X12494Y188883D01*
X12493Y188893D01*
X12492Y188903D01*
X12492Y188913D01*
Y190055D01*
X12492Y190065D01*
X12493Y190076D01*
X12494Y190086D01*
X12496Y190096D01*
X12499Y190106D01*
X12502Y190116D01*
X12505Y190126D01*
X12509Y190135D01*
X12514Y190145D01*
X12518Y190154D01*
X12524Y190162D01*
X12530Y190171D01*
X12536Y190179D01*
X12543Y190187D01*
X12550Y190194D01*
X12557Y190201D01*
X12565Y190208D01*
X12573Y190214D01*
X12582Y190220D01*
X12591Y190226D01*
X12600Y190231D01*
X12609Y190235D01*
X12618Y190239D01*
X12628Y190242D01*
X12638Y190245D01*
X12648Y190248D01*
X12658Y190250D01*
X12668Y190251D01*
X12679Y190252D01*
X12689Y190252D01*
X15209D01*
X15219Y190252D01*
D02*
G37*
G36*
X-3679D02*
X-3668Y190251D01*
X-3658Y190250D01*
X-3648Y190248D01*
X-3638Y190245D01*
X-3628Y190242D01*
X-3618Y190239D01*
X-3609Y190235D01*
X-3600Y190231D01*
X-3591Y190226D01*
X-3582Y190220D01*
X-3573Y190214D01*
X-3565Y190208D01*
X-3557Y190201D01*
X-3550Y190194D01*
X-3543Y190187D01*
X-3536Y190179D01*
X-3530Y190171D01*
X-3524Y190162D01*
X-3519Y190154D01*
X-3514Y190145D01*
X-3509Y190135D01*
X-3505Y190126D01*
X-3502Y190116D01*
X-3499Y190106D01*
X-3496Y190096D01*
X-3495Y190086D01*
X-3493Y190076D01*
X-3492Y190065D01*
X-3492Y190055D01*
Y188913D01*
X-3492Y188903D01*
X-3493Y188893D01*
X-3495Y188883D01*
X-3496Y188873D01*
X-3499Y188862D01*
X-3502Y188853D01*
X-3505Y188843D01*
X-3509Y188833D01*
X-3514Y188824D01*
X-3519Y188815D01*
X-3524Y188806D01*
X-3530Y188798D01*
X-3536Y188789D01*
X-3543Y188782D01*
X-3550Y188774D01*
X-3557Y188767D01*
X-3565Y188760D01*
X-3573Y188754D01*
X-3582Y188748D01*
X-3591Y188743D01*
X-3600Y188738D01*
X-3609Y188733D01*
X-3618Y188730D01*
X-3628Y188726D01*
X-3638Y188723D01*
X-3648Y188721D01*
X-3658Y188719D01*
X-3668Y188718D01*
X-3679Y188717D01*
X-3689Y188716D01*
X-6209D01*
X-6219Y188717D01*
X-6229Y188718D01*
X-6239Y188719D01*
X-6250Y188721D01*
X-6260Y188723D01*
X-6269Y188726D01*
X-6279Y188730D01*
X-6289Y188733D01*
X-6298Y188738D01*
X-6307Y188743D01*
X-6316Y188748D01*
X-6324Y188754D01*
X-6333Y188760D01*
X-6340Y188767D01*
X-6348Y188774D01*
X-6355Y188782D01*
X-6362Y188789D01*
X-6368Y188798D01*
X-6374Y188806D01*
X-6379Y188815D01*
X-6384Y188824D01*
X-6389Y188833D01*
X-6392Y188843D01*
X-6396Y188853D01*
X-6399Y188862D01*
X-6401Y188873D01*
X-6403Y188883D01*
X-6404Y188893D01*
X-6405Y188903D01*
X-6406Y188913D01*
Y190055D01*
X-6405Y190065D01*
X-6404Y190076D01*
X-6403Y190086D01*
X-6401Y190096D01*
X-6399Y190106D01*
X-6396Y190116D01*
X-6392Y190126D01*
X-6389Y190135D01*
X-6384Y190145D01*
X-6379Y190154D01*
X-6374Y190162D01*
X-6368Y190171D01*
X-6362Y190179D01*
X-6355Y190187D01*
X-6348Y190194D01*
X-6340Y190201D01*
X-6333Y190208D01*
X-6324Y190214D01*
X-6316Y190220D01*
X-6307Y190226D01*
X-6298Y190231D01*
X-6289Y190235D01*
X-6279Y190239D01*
X-6269Y190242D01*
X-6260Y190245D01*
X-6250Y190248D01*
X-6239Y190250D01*
X-6229Y190251D01*
X-6219Y190252D01*
X-6209Y190252D01*
X-3689D01*
X-3679Y190252D01*
D02*
G37*
G36*
X15219Y188283D02*
X15229Y188282D01*
X15239Y188281D01*
X15250Y188279D01*
X15260Y188277D01*
X15270Y188274D01*
X15279Y188270D01*
X15289Y188267D01*
X15298Y188262D01*
X15307Y188257D01*
X15316Y188252D01*
X15324Y188246D01*
X15333Y188240D01*
X15340Y188233D01*
X15348Y188226D01*
X15355Y188218D01*
X15362Y188210D01*
X15368Y188202D01*
X15374Y188194D01*
X15379Y188185D01*
X15384Y188176D01*
X15389Y188167D01*
X15392Y188157D01*
X15396Y188147D01*
X15399Y188138D01*
X15401Y188128D01*
X15403Y188117D01*
X15404Y188107D01*
X15405Y188097D01*
X15405Y188087D01*
Y186945D01*
X15405Y186935D01*
X15404Y186924D01*
X15403Y186914D01*
X15401Y186904D01*
X15399Y186894D01*
X15396Y186884D01*
X15392Y186874D01*
X15389Y186865D01*
X15384Y186855D01*
X15379Y186846D01*
X15374Y186838D01*
X15368Y186829D01*
X15362Y186821D01*
X15355Y186813D01*
X15348Y186806D01*
X15340Y186799D01*
X15333Y186792D01*
X15324Y186786D01*
X15316Y186780D01*
X15307Y186774D01*
X15298Y186769D01*
X15289Y186765D01*
X15279Y186761D01*
X15270Y186758D01*
X15260Y186755D01*
X15250Y186752D01*
X15239Y186750D01*
X15229Y186749D01*
X15219Y186748D01*
X15209Y186748D01*
X12689D01*
X12679Y186748D01*
X12668Y186749D01*
X12658Y186750D01*
X12648Y186752D01*
X12638Y186755D01*
X12628Y186758D01*
X12618Y186761D01*
X12609Y186765D01*
X12600Y186769D01*
X12591Y186774D01*
X12582Y186780D01*
X12573Y186786D01*
X12565Y186792D01*
X12557Y186799D01*
X12550Y186806D01*
X12543Y186813D01*
X12536Y186821D01*
X12530Y186829D01*
X12524Y186838D01*
X12518Y186846D01*
X12514Y186855D01*
X12509Y186865D01*
X12505Y186874D01*
X12502Y186884D01*
X12499Y186894D01*
X12496Y186904D01*
X12494Y186914D01*
X12493Y186924D01*
X12492Y186935D01*
X12492Y186945D01*
Y188087D01*
X12492Y188097D01*
X12493Y188107D01*
X12494Y188117D01*
X12496Y188128D01*
X12499Y188138D01*
X12502Y188147D01*
X12505Y188157D01*
X12509Y188167D01*
X12514Y188176D01*
X12518Y188185D01*
X12524Y188194D01*
X12530Y188202D01*
X12536Y188210D01*
X12543Y188218D01*
X12550Y188226D01*
X12557Y188233D01*
X12565Y188240D01*
X12573Y188246D01*
X12582Y188252D01*
X12591Y188257D01*
X12600Y188262D01*
X12609Y188267D01*
X12618Y188270D01*
X12628Y188274D01*
X12638Y188277D01*
X12648Y188279D01*
X12658Y188281D01*
X12668Y188282D01*
X12679Y188283D01*
X12689Y188284D01*
X15209D01*
X15219Y188283D01*
D02*
G37*
G36*
X-3679D02*
X-3668Y188282D01*
X-3658Y188281D01*
X-3648Y188279D01*
X-3638Y188277D01*
X-3628Y188274D01*
X-3618Y188270D01*
X-3609Y188267D01*
X-3600Y188262D01*
X-3591Y188257D01*
X-3582Y188252D01*
X-3573Y188246D01*
X-3565Y188240D01*
X-3557Y188233D01*
X-3550Y188226D01*
X-3543Y188218D01*
X-3536Y188210D01*
X-3530Y188202D01*
X-3524Y188194D01*
X-3519Y188185D01*
X-3514Y188176D01*
X-3509Y188167D01*
X-3505Y188157D01*
X-3502Y188147D01*
X-3499Y188138D01*
X-3496Y188128D01*
X-3495Y188117D01*
X-3493Y188107D01*
X-3492Y188097D01*
X-3492Y188087D01*
Y186945D01*
X-3492Y186935D01*
X-3493Y186924D01*
X-3495Y186914D01*
X-3496Y186904D01*
X-3499Y186894D01*
X-3502Y186884D01*
X-3505Y186874D01*
X-3509Y186865D01*
X-3514Y186855D01*
X-3519Y186846D01*
X-3524Y186838D01*
X-3530Y186829D01*
X-3536Y186821D01*
X-3543Y186813D01*
X-3550Y186806D01*
X-3557Y186799D01*
X-3565Y186792D01*
X-3573Y186786D01*
X-3582Y186780D01*
X-3591Y186774D01*
X-3600Y186769D01*
X-3609Y186765D01*
X-3618Y186761D01*
X-3628Y186758D01*
X-3638Y186755D01*
X-3648Y186752D01*
X-3658Y186750D01*
X-3668Y186749D01*
X-3679Y186748D01*
X-3689Y186748D01*
X-6209D01*
X-6219Y186748D01*
X-6229Y186749D01*
X-6239Y186750D01*
X-6250Y186752D01*
X-6260Y186755D01*
X-6269Y186758D01*
X-6279Y186761D01*
X-6289Y186765D01*
X-6298Y186769D01*
X-6307Y186774D01*
X-6316Y186780D01*
X-6324Y186786D01*
X-6333Y186792D01*
X-6340Y186799D01*
X-6348Y186806D01*
X-6355Y186813D01*
X-6362Y186821D01*
X-6368Y186829D01*
X-6374Y186838D01*
X-6379Y186846D01*
X-6384Y186855D01*
X-6389Y186865D01*
X-6392Y186874D01*
X-6396Y186884D01*
X-6399Y186894D01*
X-6401Y186904D01*
X-6403Y186914D01*
X-6404Y186924D01*
X-6405Y186935D01*
X-6406Y186945D01*
Y188087D01*
X-6405Y188097D01*
X-6404Y188107D01*
X-6403Y188117D01*
X-6401Y188128D01*
X-6399Y188138D01*
X-6396Y188147D01*
X-6392Y188157D01*
X-6389Y188167D01*
X-6384Y188176D01*
X-6379Y188185D01*
X-6374Y188194D01*
X-6368Y188202D01*
X-6362Y188210D01*
X-6355Y188218D01*
X-6348Y188226D01*
X-6340Y188233D01*
X-6333Y188240D01*
X-6324Y188246D01*
X-6316Y188252D01*
X-6307Y188257D01*
X-6298Y188262D01*
X-6289Y188267D01*
X-6279Y188270D01*
X-6269Y188274D01*
X-6260Y188277D01*
X-6250Y188279D01*
X-6239Y188281D01*
X-6229Y188282D01*
X-6219Y188283D01*
X-6209Y188284D01*
X-3689D01*
X-3679Y188283D01*
D02*
G37*
G36*
X15219Y186315D02*
X15229Y186314D01*
X15239Y186312D01*
X15250Y186311D01*
X15260Y186308D01*
X15270Y186305D01*
X15279Y186302D01*
X15289Y186298D01*
X15298Y186293D01*
X15307Y186289D01*
X15316Y186283D01*
X15324Y186277D01*
X15333Y186271D01*
X15340Y186264D01*
X15348Y186257D01*
X15355Y186250D01*
X15362Y186242D01*
X15368Y186234D01*
X15374Y186225D01*
X15379Y186216D01*
X15384Y186207D01*
X15389Y186198D01*
X15392Y186189D01*
X15396Y186179D01*
X15399Y186169D01*
X15401Y186159D01*
X15403Y186149D01*
X15404Y186139D01*
X15405Y186128D01*
X15405Y186118D01*
Y184976D01*
X15405Y184966D01*
X15404Y184956D01*
X15403Y184946D01*
X15401Y184935D01*
X15399Y184925D01*
X15396Y184916D01*
X15392Y184906D01*
X15389Y184896D01*
X15384Y184887D01*
X15379Y184878D01*
X15374Y184869D01*
X15368Y184861D01*
X15362Y184853D01*
X15355Y184845D01*
X15348Y184837D01*
X15340Y184830D01*
X15333Y184823D01*
X15324Y184817D01*
X15316Y184811D01*
X15307Y184806D01*
X15298Y184801D01*
X15289Y184797D01*
X15279Y184793D01*
X15270Y184789D01*
X15260Y184786D01*
X15250Y184784D01*
X15239Y184782D01*
X15229Y184781D01*
X15219Y184780D01*
X15209Y184780D01*
X12689D01*
X12679Y184780D01*
X12668Y184781D01*
X12658Y184782D01*
X12648Y184784D01*
X12638Y184786D01*
X12628Y184789D01*
X12618Y184793D01*
X12609Y184797D01*
X12600Y184801D01*
X12591Y184806D01*
X12582Y184811D01*
X12573Y184817D01*
X12565Y184823D01*
X12557Y184830D01*
X12550Y184837D01*
X12543Y184845D01*
X12536Y184853D01*
X12530Y184861D01*
X12524Y184869D01*
X12518Y184878D01*
X12514Y184887D01*
X12509Y184896D01*
X12505Y184906D01*
X12502Y184916D01*
X12499Y184925D01*
X12496Y184935D01*
X12494Y184946D01*
X12493Y184956D01*
X12492Y184966D01*
X12492Y184976D01*
Y186118D01*
X12492Y186128D01*
X12493Y186139D01*
X12494Y186149D01*
X12496Y186159D01*
X12499Y186169D01*
X12502Y186179D01*
X12505Y186189D01*
X12509Y186198D01*
X12514Y186207D01*
X12518Y186216D01*
X12524Y186225D01*
X12530Y186234D01*
X12536Y186242D01*
X12543Y186250D01*
X12550Y186257D01*
X12557Y186264D01*
X12565Y186271D01*
X12573Y186277D01*
X12582Y186283D01*
X12591Y186289D01*
X12600Y186293D01*
X12609Y186298D01*
X12618Y186302D01*
X12628Y186305D01*
X12638Y186308D01*
X12648Y186311D01*
X12658Y186312D01*
X12668Y186314D01*
X12679Y186315D01*
X12689Y186315D01*
X15209D01*
X15219Y186315D01*
D02*
G37*
G36*
X-3679D02*
X-3668Y186314D01*
X-3658Y186312D01*
X-3648Y186311D01*
X-3638Y186308D01*
X-3628Y186305D01*
X-3618Y186302D01*
X-3609Y186298D01*
X-3600Y186293D01*
X-3591Y186289D01*
X-3582Y186283D01*
X-3573Y186277D01*
X-3565Y186271D01*
X-3557Y186264D01*
X-3550Y186257D01*
X-3543Y186250D01*
X-3536Y186242D01*
X-3530Y186234D01*
X-3524Y186225D01*
X-3519Y186216D01*
X-3514Y186207D01*
X-3509Y186198D01*
X-3505Y186189D01*
X-3502Y186179D01*
X-3499Y186169D01*
X-3496Y186159D01*
X-3495Y186149D01*
X-3493Y186139D01*
X-3492Y186128D01*
X-3492Y186118D01*
Y184976D01*
X-3492Y184966D01*
X-3493Y184956D01*
X-3495Y184946D01*
X-3496Y184935D01*
X-3499Y184925D01*
X-3502Y184916D01*
X-3505Y184906D01*
X-3509Y184896D01*
X-3514Y184887D01*
X-3519Y184878D01*
X-3524Y184869D01*
X-3530Y184861D01*
X-3536Y184853D01*
X-3543Y184845D01*
X-3550Y184837D01*
X-3557Y184830D01*
X-3565Y184823D01*
X-3573Y184817D01*
X-3582Y184811D01*
X-3591Y184806D01*
X-3600Y184801D01*
X-3609Y184797D01*
X-3618Y184793D01*
X-3628Y184789D01*
X-3638Y184786D01*
X-3648Y184784D01*
X-3658Y184782D01*
X-3668Y184781D01*
X-3679Y184780D01*
X-3689Y184780D01*
X-6209D01*
X-6219Y184780D01*
X-6229Y184781D01*
X-6239Y184782D01*
X-6250Y184784D01*
X-6260Y184786D01*
X-6269Y184789D01*
X-6279Y184793D01*
X-6289Y184797D01*
X-6298Y184801D01*
X-6307Y184806D01*
X-6316Y184811D01*
X-6324Y184817D01*
X-6333Y184823D01*
X-6340Y184830D01*
X-6348Y184837D01*
X-6355Y184845D01*
X-6362Y184853D01*
X-6368Y184861D01*
X-6374Y184869D01*
X-6379Y184878D01*
X-6384Y184887D01*
X-6389Y184896D01*
X-6392Y184906D01*
X-6396Y184916D01*
X-6399Y184925D01*
X-6401Y184935D01*
X-6403Y184946D01*
X-6404Y184956D01*
X-6405Y184966D01*
X-6406Y184976D01*
Y186118D01*
X-6405Y186128D01*
X-6404Y186139D01*
X-6403Y186149D01*
X-6401Y186159D01*
X-6399Y186169D01*
X-6396Y186179D01*
X-6392Y186189D01*
X-6389Y186198D01*
X-6384Y186207D01*
X-6379Y186216D01*
X-6374Y186225D01*
X-6368Y186234D01*
X-6362Y186242D01*
X-6355Y186250D01*
X-6348Y186257D01*
X-6340Y186264D01*
X-6333Y186271D01*
X-6324Y186277D01*
X-6316Y186283D01*
X-6307Y186289D01*
X-6298Y186293D01*
X-6289Y186298D01*
X-6279Y186302D01*
X-6269Y186305D01*
X-6260Y186308D01*
X-6250Y186311D01*
X-6239Y186312D01*
X-6229Y186314D01*
X-6219Y186315D01*
X-6209Y186315D01*
X-3689D01*
X-3679Y186315D01*
D02*
G37*
G36*
X15219Y184346D02*
X15229Y184345D01*
X15239Y184344D01*
X15250Y184342D01*
X15260Y184340D01*
X15270Y184337D01*
X15279Y184333D01*
X15289Y184329D01*
X15298Y184325D01*
X15307Y184320D01*
X15316Y184315D01*
X15324Y184309D01*
X15333Y184303D01*
X15340Y184296D01*
X15348Y184289D01*
X15355Y184281D01*
X15362Y184274D01*
X15368Y184265D01*
X15374Y184257D01*
X15379Y184248D01*
X15384Y184239D01*
X15389Y184230D01*
X15392Y184220D01*
X15396Y184210D01*
X15399Y184201D01*
X15401Y184190D01*
X15403Y184180D01*
X15404Y184170D01*
X15405Y184160D01*
X15405Y184150D01*
Y183008D01*
X15405Y182998D01*
X15404Y182987D01*
X15403Y182977D01*
X15401Y182967D01*
X15399Y182957D01*
X15396Y182947D01*
X15392Y182937D01*
X15389Y182928D01*
X15384Y182919D01*
X15379Y182909D01*
X15374Y182901D01*
X15368Y182892D01*
X15362Y182884D01*
X15355Y182876D01*
X15348Y182869D01*
X15340Y182862D01*
X15333Y182855D01*
X15324Y182849D01*
X15316Y182843D01*
X15307Y182837D01*
X15298Y182833D01*
X15289Y182828D01*
X15279Y182824D01*
X15270Y182821D01*
X15260Y182818D01*
X15250Y182815D01*
X15239Y182813D01*
X15229Y182812D01*
X15219Y182811D01*
X15209Y182811D01*
X12689D01*
X12679Y182811D01*
X12668Y182812D01*
X12658Y182813D01*
X12648Y182815D01*
X12638Y182818D01*
X12628Y182821D01*
X12618Y182824D01*
X12609Y182828D01*
X12600Y182833D01*
X12591Y182837D01*
X12582Y182843D01*
X12573Y182849D01*
X12565Y182855D01*
X12557Y182862D01*
X12550Y182869D01*
X12543Y182876D01*
X12536Y182884D01*
X12530Y182892D01*
X12524Y182901D01*
X12518Y182909D01*
X12514Y182919D01*
X12509Y182928D01*
X12505Y182937D01*
X12502Y182947D01*
X12499Y182957D01*
X12496Y182967D01*
X12494Y182977D01*
X12493Y182987D01*
X12492Y182998D01*
X12492Y183008D01*
Y184150D01*
X12492Y184160D01*
X12493Y184170D01*
X12494Y184180D01*
X12496Y184190D01*
X12499Y184201D01*
X12502Y184210D01*
X12505Y184220D01*
X12509Y184230D01*
X12514Y184239D01*
X12518Y184248D01*
X12524Y184257D01*
X12530Y184265D01*
X12536Y184274D01*
X12543Y184281D01*
X12550Y184289D01*
X12557Y184296D01*
X12565Y184303D01*
X12573Y184309D01*
X12582Y184315D01*
X12591Y184320D01*
X12600Y184325D01*
X12609Y184329D01*
X12618Y184333D01*
X12628Y184337D01*
X12638Y184340D01*
X12648Y184342D01*
X12658Y184344D01*
X12668Y184345D01*
X12679Y184346D01*
X12689Y184346D01*
X15209D01*
X15219Y184346D01*
D02*
G37*
G36*
X-3679D02*
X-3668Y184345D01*
X-3658Y184344D01*
X-3648Y184342D01*
X-3638Y184340D01*
X-3628Y184337D01*
X-3618Y184333D01*
X-3609Y184329D01*
X-3600Y184325D01*
X-3591Y184320D01*
X-3582Y184315D01*
X-3573Y184309D01*
X-3565Y184303D01*
X-3557Y184296D01*
X-3550Y184289D01*
X-3543Y184281D01*
X-3536Y184274D01*
X-3530Y184265D01*
X-3524Y184257D01*
X-3519Y184248D01*
X-3514Y184239D01*
X-3509Y184230D01*
X-3505Y184220D01*
X-3502Y184210D01*
X-3499Y184201D01*
X-3496Y184190D01*
X-3495Y184180D01*
X-3493Y184170D01*
X-3492Y184160D01*
X-3492Y184150D01*
Y183008D01*
X-3492Y182998D01*
X-3493Y182987D01*
X-3495Y182977D01*
X-3496Y182967D01*
X-3499Y182957D01*
X-3502Y182947D01*
X-3505Y182937D01*
X-3509Y182928D01*
X-3514Y182919D01*
X-3519Y182909D01*
X-3524Y182901D01*
X-3530Y182892D01*
X-3536Y182884D01*
X-3543Y182876D01*
X-3550Y182869D01*
X-3557Y182862D01*
X-3565Y182855D01*
X-3573Y182849D01*
X-3582Y182843D01*
X-3591Y182837D01*
X-3600Y182833D01*
X-3609Y182828D01*
X-3618Y182824D01*
X-3628Y182821D01*
X-3638Y182818D01*
X-3648Y182815D01*
X-3658Y182813D01*
X-3668Y182812D01*
X-3679Y182811D01*
X-3689Y182811D01*
X-6209D01*
X-6219Y182811D01*
X-6229Y182812D01*
X-6239Y182813D01*
X-6250Y182815D01*
X-6260Y182818D01*
X-6269Y182821D01*
X-6279Y182824D01*
X-6289Y182828D01*
X-6298Y182833D01*
X-6307Y182837D01*
X-6316Y182843D01*
X-6324Y182849D01*
X-6333Y182855D01*
X-6340Y182862D01*
X-6348Y182869D01*
X-6355Y182876D01*
X-6362Y182884D01*
X-6368Y182892D01*
X-6374Y182901D01*
X-6379Y182909D01*
X-6384Y182919D01*
X-6389Y182928D01*
X-6392Y182937D01*
X-6396Y182947D01*
X-6399Y182957D01*
X-6401Y182967D01*
X-6403Y182977D01*
X-6404Y182987D01*
X-6405Y182998D01*
X-6406Y183008D01*
Y184150D01*
X-6405Y184160D01*
X-6404Y184170D01*
X-6403Y184180D01*
X-6401Y184190D01*
X-6399Y184201D01*
X-6396Y184210D01*
X-6392Y184220D01*
X-6389Y184230D01*
X-6384Y184239D01*
X-6379Y184248D01*
X-6374Y184257D01*
X-6368Y184265D01*
X-6362Y184274D01*
X-6355Y184281D01*
X-6348Y184289D01*
X-6340Y184296D01*
X-6333Y184303D01*
X-6324Y184309D01*
X-6316Y184315D01*
X-6307Y184320D01*
X-6298Y184325D01*
X-6289Y184329D01*
X-6279Y184333D01*
X-6269Y184337D01*
X-6260Y184340D01*
X-6250Y184342D01*
X-6239Y184344D01*
X-6229Y184345D01*
X-6219Y184346D01*
X-6209Y184346D01*
X-3689D01*
X-3679Y184346D01*
D02*
G37*
G36*
X11567Y181433D02*
X-2567D01*
Y195567D01*
X11567D01*
Y181433D01*
D02*
G37*
G36*
X15219Y182378D02*
X15229Y182377D01*
X15239Y182376D01*
X15250Y182374D01*
X15260Y182371D01*
X15270Y182368D01*
X15279Y182365D01*
X15289Y182361D01*
X15298Y182357D01*
X15307Y182352D01*
X15316Y182346D01*
X15324Y182340D01*
X15333Y182334D01*
X15340Y182327D01*
X15348Y182320D01*
X15355Y182313D01*
X15362Y182305D01*
X15368Y182297D01*
X15374Y182288D01*
X15379Y182280D01*
X15384Y182271D01*
X15389Y182261D01*
X15392Y182252D01*
X15396Y182242D01*
X15399Y182232D01*
X15401Y182222D01*
X15403Y182212D01*
X15404Y182202D01*
X15405Y182191D01*
X15405Y182181D01*
Y181039D01*
X15405Y181029D01*
X15404Y181019D01*
X15403Y181009D01*
X15401Y180998D01*
X15399Y180988D01*
X15396Y180979D01*
X15392Y180969D01*
X15389Y180959D01*
X15384Y180950D01*
X15379Y180941D01*
X15374Y180932D01*
X15368Y180924D01*
X15362Y180915D01*
X15355Y180908D01*
X15348Y180900D01*
X15340Y180893D01*
X15333Y180886D01*
X15324Y180880D01*
X15316Y180874D01*
X15307Y180869D01*
X15298Y180864D01*
X15289Y180859D01*
X15279Y180856D01*
X15270Y180852D01*
X15260Y180849D01*
X15250Y180847D01*
X15239Y180845D01*
X15229Y180844D01*
X15219Y180843D01*
X15209Y180842D01*
X12689D01*
X12679Y180843D01*
X12668Y180844D01*
X12658Y180845D01*
X12648Y180847D01*
X12638Y180849D01*
X12628Y180852D01*
X12618Y180856D01*
X12609Y180859D01*
X12600Y180864D01*
X12591Y180869D01*
X12582Y180874D01*
X12573Y180880D01*
X12565Y180886D01*
X12557Y180893D01*
X12550Y180900D01*
X12543Y180908D01*
X12536Y180915D01*
X12530Y180924D01*
X12524Y180932D01*
X12518Y180941D01*
X12514Y180950D01*
X12509Y180959D01*
X12505Y180969D01*
X12502Y180979D01*
X12499Y180988D01*
X12496Y180998D01*
X12494Y181009D01*
X12493Y181019D01*
X12492Y181029D01*
X12492Y181039D01*
Y182181D01*
X12492Y182191D01*
X12493Y182202D01*
X12494Y182212D01*
X12496Y182222D01*
X12499Y182232D01*
X12502Y182242D01*
X12505Y182252D01*
X12509Y182261D01*
X12514Y182271D01*
X12518Y182280D01*
X12524Y182288D01*
X12530Y182297D01*
X12536Y182305D01*
X12543Y182313D01*
X12550Y182320D01*
X12557Y182327D01*
X12565Y182334D01*
X12573Y182340D01*
X12582Y182346D01*
X12591Y182352D01*
X12600Y182357D01*
X12609Y182361D01*
X12618Y182365D01*
X12628Y182368D01*
X12638Y182371D01*
X12648Y182374D01*
X12658Y182376D01*
X12668Y182377D01*
X12679Y182378D01*
X12689Y182378D01*
X15209D01*
X15219Y182378D01*
D02*
G37*
G36*
X-3679D02*
X-3668Y182377D01*
X-3658Y182376D01*
X-3648Y182374D01*
X-3638Y182371D01*
X-3628Y182368D01*
X-3618Y182365D01*
X-3609Y182361D01*
X-3600Y182357D01*
X-3591Y182352D01*
X-3582Y182346D01*
X-3573Y182340D01*
X-3565Y182334D01*
X-3557Y182327D01*
X-3550Y182320D01*
X-3543Y182313D01*
X-3536Y182305D01*
X-3530Y182297D01*
X-3524Y182288D01*
X-3519Y182280D01*
X-3514Y182271D01*
X-3509Y182261D01*
X-3505Y182252D01*
X-3502Y182242D01*
X-3499Y182232D01*
X-3496Y182222D01*
X-3495Y182212D01*
X-3493Y182202D01*
X-3492Y182191D01*
X-3492Y182181D01*
Y181039D01*
X-3492Y181029D01*
X-3493Y181019D01*
X-3495Y181009D01*
X-3496Y180998D01*
X-3499Y180988D01*
X-3502Y180979D01*
X-3505Y180969D01*
X-3509Y180959D01*
X-3514Y180950D01*
X-3519Y180941D01*
X-3524Y180932D01*
X-3530Y180924D01*
X-3536Y180915D01*
X-3543Y180908D01*
X-3550Y180900D01*
X-3557Y180893D01*
X-3565Y180886D01*
X-3573Y180880D01*
X-3582Y180874D01*
X-3591Y180869D01*
X-3600Y180864D01*
X-3609Y180859D01*
X-3618Y180856D01*
X-3628Y180852D01*
X-3638Y180849D01*
X-3648Y180847D01*
X-3658Y180845D01*
X-3668Y180844D01*
X-3679Y180843D01*
X-3689Y180842D01*
X-6209D01*
X-6219Y180843D01*
X-6229Y180844D01*
X-6239Y180845D01*
X-6250Y180847D01*
X-6260Y180849D01*
X-6269Y180852D01*
X-6279Y180856D01*
X-6289Y180859D01*
X-6298Y180864D01*
X-6307Y180869D01*
X-6316Y180874D01*
X-6324Y180880D01*
X-6333Y180886D01*
X-6340Y180893D01*
X-6348Y180900D01*
X-6355Y180908D01*
X-6362Y180915D01*
X-6368Y180924D01*
X-6374Y180932D01*
X-6379Y180941D01*
X-6384Y180950D01*
X-6389Y180959D01*
X-6392Y180969D01*
X-6396Y180979D01*
X-6399Y180988D01*
X-6401Y180998D01*
X-6403Y181009D01*
X-6404Y181019D01*
X-6405Y181029D01*
X-6406Y181039D01*
Y182181D01*
X-6405Y182191D01*
X-6404Y182202D01*
X-6403Y182212D01*
X-6401Y182222D01*
X-6399Y182232D01*
X-6396Y182242D01*
X-6392Y182252D01*
X-6389Y182261D01*
X-6384Y182271D01*
X-6379Y182280D01*
X-6374Y182288D01*
X-6368Y182297D01*
X-6362Y182305D01*
X-6355Y182313D01*
X-6348Y182320D01*
X-6340Y182327D01*
X-6333Y182334D01*
X-6324Y182340D01*
X-6316Y182346D01*
X-6307Y182352D01*
X-6298Y182357D01*
X-6289Y182361D01*
X-6279Y182365D01*
X-6269Y182368D01*
X-6260Y182371D01*
X-6250Y182374D01*
X-6239Y182376D01*
X-6229Y182377D01*
X-6219Y182378D01*
X-6209Y182378D01*
X-3689D01*
X-3679Y182378D01*
D02*
G37*
G36*
X11971Y180508D02*
X11981Y180507D01*
X11991Y180505D01*
X12002Y180504D01*
X12012Y180501D01*
X12021Y180498D01*
X12031Y180495D01*
X12041Y180491D01*
X12050Y180486D01*
X12059Y180482D01*
X12068Y180476D01*
X12076Y180470D01*
X12084Y180464D01*
X12092Y180457D01*
X12100Y180450D01*
X12107Y180443D01*
X12114Y180435D01*
X12120Y180427D01*
X12126Y180418D01*
X12131Y180409D01*
X12136Y180400D01*
X12140Y180391D01*
X12144Y180382D01*
X12148Y180372D01*
X12151Y180362D01*
X12153Y180352D01*
X12155Y180342D01*
X12156Y180332D01*
X12157Y180321D01*
X12157Y180311D01*
Y177791D01*
X12157Y177781D01*
X12156Y177771D01*
X12155Y177761D01*
X12153Y177750D01*
X12151Y177740D01*
X12148Y177731D01*
X12144Y177721D01*
X12140Y177711D01*
X12136Y177702D01*
X12131Y177693D01*
X12126Y177684D01*
X12120Y177676D01*
X12114Y177667D01*
X12107Y177660D01*
X12100Y177652D01*
X12092Y177645D01*
X12084Y177638D01*
X12076Y177632D01*
X12068Y177626D01*
X12059Y177621D01*
X12050Y177616D01*
X12041Y177611D01*
X12031Y177608D01*
X12021Y177604D01*
X12012Y177601D01*
X12002Y177599D01*
X11991Y177597D01*
X11981Y177596D01*
X11971Y177595D01*
X11961Y177594D01*
X10819D01*
X10809Y177595D01*
X10798Y177596D01*
X10788Y177597D01*
X10778Y177599D01*
X10768Y177601D01*
X10758Y177604D01*
X10748Y177608D01*
X10739Y177611D01*
X10729Y177616D01*
X10721Y177621D01*
X10712Y177626D01*
X10703Y177632D01*
X10695Y177638D01*
X10687Y177645D01*
X10680Y177652D01*
X10673Y177660D01*
X10666Y177667D01*
X10660Y177676D01*
X10654Y177684D01*
X10648Y177693D01*
X10644Y177702D01*
X10639Y177711D01*
X10635Y177721D01*
X10632Y177731D01*
X10629Y177740D01*
X10626Y177750D01*
X10625Y177761D01*
X10623Y177771D01*
X10622Y177781D01*
X10622Y177791D01*
Y180311D01*
X10622Y180321D01*
X10623Y180332D01*
X10625Y180342D01*
X10626Y180352D01*
X10629Y180362D01*
X10632Y180372D01*
X10635Y180382D01*
X10639Y180391D01*
X10644Y180400D01*
X10648Y180409D01*
X10654Y180418D01*
X10660Y180427D01*
X10666Y180435D01*
X10673Y180443D01*
X10680Y180450D01*
X10687Y180457D01*
X10695Y180464D01*
X10703Y180470D01*
X10712Y180476D01*
X10721Y180482D01*
X10729Y180486D01*
X10739Y180491D01*
X10748Y180495D01*
X10758Y180498D01*
X10768Y180501D01*
X10778Y180504D01*
X10788Y180505D01*
X10798Y180507D01*
X10809Y180508D01*
X10819Y180508D01*
X11961D01*
X11971Y180508D01*
D02*
G37*
G36*
X10002D02*
X10013Y180507D01*
X10023Y180505D01*
X10033Y180504D01*
X10043Y180501D01*
X10053Y180498D01*
X10063Y180495D01*
X10072Y180491D01*
X10081Y180486D01*
X10091Y180482D01*
X10099Y180476D01*
X10108Y180470D01*
X10116Y180464D01*
X10124Y180457D01*
X10131Y180450D01*
X10138Y180443D01*
X10145Y180435D01*
X10151Y180427D01*
X10157Y180418D01*
X10163Y180409D01*
X10167Y180400D01*
X10172Y180391D01*
X10176Y180382D01*
X10179Y180372D01*
X10182Y180362D01*
X10185Y180352D01*
X10187Y180342D01*
X10188Y180332D01*
X10189Y180321D01*
X10189Y180311D01*
Y177791D01*
X10189Y177781D01*
X10188Y177771D01*
X10187Y177761D01*
X10185Y177750D01*
X10182Y177740D01*
X10179Y177731D01*
X10176Y177721D01*
X10172Y177711D01*
X10167Y177702D01*
X10163Y177693D01*
X10157Y177684D01*
X10151Y177676D01*
X10145Y177667D01*
X10138Y177660D01*
X10131Y177652D01*
X10124Y177645D01*
X10116Y177638D01*
X10108Y177632D01*
X10099Y177626D01*
X10091Y177621D01*
X10081Y177616D01*
X10072Y177611D01*
X10063Y177608D01*
X10053Y177604D01*
X10043Y177601D01*
X10033Y177599D01*
X10023Y177597D01*
X10013Y177596D01*
X10002Y177595D01*
X9992Y177594D01*
X8850D01*
X8840Y177595D01*
X8830Y177596D01*
X8820Y177597D01*
X8810Y177599D01*
X8800Y177601D01*
X8790Y177604D01*
X8780Y177608D01*
X8770Y177611D01*
X8761Y177616D01*
X8752Y177621D01*
X8743Y177626D01*
X8735Y177632D01*
X8726Y177638D01*
X8719Y177645D01*
X8711Y177652D01*
X8704Y177660D01*
X8697Y177667D01*
X8691Y177676D01*
X8685Y177684D01*
X8680Y177693D01*
X8675Y177702D01*
X8671Y177711D01*
X8667Y177721D01*
X8663Y177731D01*
X8660Y177740D01*
X8658Y177750D01*
X8656Y177761D01*
X8655Y177771D01*
X8654Y177781D01*
X8653Y177791D01*
Y180311D01*
X8654Y180321D01*
X8655Y180332D01*
X8656Y180342D01*
X8658Y180352D01*
X8660Y180362D01*
X8663Y180372D01*
X8667Y180382D01*
X8671Y180391D01*
X8675Y180400D01*
X8680Y180409D01*
X8685Y180418D01*
X8691Y180427D01*
X8697Y180435D01*
X8704Y180443D01*
X8711Y180450D01*
X8719Y180457D01*
X8726Y180464D01*
X8735Y180470D01*
X8743Y180476D01*
X8752Y180482D01*
X8761Y180486D01*
X8770Y180491D01*
X8780Y180495D01*
X8790Y180498D01*
X8800Y180501D01*
X8810Y180504D01*
X8820Y180505D01*
X8830Y180507D01*
X8840Y180508D01*
X8850Y180508D01*
X9992D01*
X10002Y180508D01*
D02*
G37*
G36*
X8034D02*
X8044Y180507D01*
X8054Y180505D01*
X8065Y180504D01*
X8075Y180501D01*
X8084Y180498D01*
X8094Y180495D01*
X8104Y180491D01*
X8113Y180486D01*
X8122Y180482D01*
X8131Y180476D01*
X8139Y180470D01*
X8147Y180464D01*
X8155Y180457D01*
X8163Y180450D01*
X8170Y180443D01*
X8177Y180435D01*
X8183Y180427D01*
X8189Y180418D01*
X8194Y180409D01*
X8199Y180400D01*
X8203Y180391D01*
X8207Y180382D01*
X8211Y180372D01*
X8214Y180362D01*
X8216Y180352D01*
X8218Y180342D01*
X8219Y180332D01*
X8220Y180321D01*
X8220Y180311D01*
Y177791D01*
X8220Y177781D01*
X8219Y177771D01*
X8218Y177761D01*
X8216Y177750D01*
X8214Y177740D01*
X8211Y177731D01*
X8207Y177721D01*
X8203Y177711D01*
X8199Y177702D01*
X8194Y177693D01*
X8189Y177684D01*
X8183Y177676D01*
X8177Y177667D01*
X8170Y177660D01*
X8163Y177652D01*
X8155Y177645D01*
X8147Y177638D01*
X8139Y177632D01*
X8131Y177626D01*
X8122Y177621D01*
X8113Y177616D01*
X8104Y177611D01*
X8094Y177608D01*
X8084Y177604D01*
X8075Y177601D01*
X8065Y177599D01*
X8054Y177597D01*
X8044Y177596D01*
X8034Y177595D01*
X8024Y177594D01*
X6882D01*
X6872Y177595D01*
X6861Y177596D01*
X6851Y177597D01*
X6841Y177599D01*
X6831Y177601D01*
X6821Y177604D01*
X6811Y177608D01*
X6802Y177611D01*
X6792Y177616D01*
X6784Y177621D01*
X6775Y177626D01*
X6766Y177632D01*
X6758Y177638D01*
X6750Y177645D01*
X6743Y177652D01*
X6736Y177660D01*
X6729Y177667D01*
X6723Y177676D01*
X6717Y177684D01*
X6711Y177693D01*
X6707Y177702D01*
X6702Y177711D01*
X6698Y177721D01*
X6695Y177731D01*
X6692Y177740D01*
X6689Y177750D01*
X6688Y177761D01*
X6686Y177771D01*
X6685Y177781D01*
X6685Y177791D01*
Y180311D01*
X6685Y180321D01*
X6686Y180332D01*
X6688Y180342D01*
X6689Y180352D01*
X6692Y180362D01*
X6695Y180372D01*
X6698Y180382D01*
X6702Y180391D01*
X6707Y180400D01*
X6711Y180409D01*
X6717Y180418D01*
X6723Y180427D01*
X6729Y180435D01*
X6736Y180443D01*
X6743Y180450D01*
X6750Y180457D01*
X6758Y180464D01*
X6766Y180470D01*
X6775Y180476D01*
X6784Y180482D01*
X6792Y180486D01*
X6802Y180491D01*
X6811Y180495D01*
X6821Y180498D01*
X6831Y180501D01*
X6841Y180504D01*
X6851Y180505D01*
X6861Y180507D01*
X6872Y180508D01*
X6882Y180508D01*
X8024D01*
X8034Y180508D01*
D02*
G37*
G36*
X6065D02*
X6076Y180507D01*
X6086Y180505D01*
X6096Y180504D01*
X6106Y180501D01*
X6116Y180498D01*
X6126Y180495D01*
X6135Y180491D01*
X6145Y180486D01*
X6154Y180482D01*
X6162Y180476D01*
X6171Y180470D01*
X6179Y180464D01*
X6187Y180457D01*
X6194Y180450D01*
X6201Y180443D01*
X6208Y180435D01*
X6214Y180427D01*
X6220Y180418D01*
X6226Y180409D01*
X6230Y180400D01*
X6235Y180391D01*
X6239Y180382D01*
X6242Y180372D01*
X6245Y180362D01*
X6248Y180352D01*
X6250Y180342D01*
X6251Y180332D01*
X6252Y180321D01*
X6252Y180311D01*
Y177791D01*
X6252Y177781D01*
X6251Y177771D01*
X6250Y177761D01*
X6248Y177750D01*
X6245Y177740D01*
X6242Y177731D01*
X6239Y177721D01*
X6235Y177711D01*
X6230Y177702D01*
X6226Y177693D01*
X6220Y177684D01*
X6214Y177676D01*
X6208Y177667D01*
X6201Y177660D01*
X6194Y177652D01*
X6187Y177645D01*
X6179Y177638D01*
X6171Y177632D01*
X6162Y177626D01*
X6154Y177621D01*
X6145Y177616D01*
X6135Y177611D01*
X6126Y177608D01*
X6116Y177604D01*
X6106Y177601D01*
X6096Y177599D01*
X6086Y177597D01*
X6076Y177596D01*
X6065Y177595D01*
X6055Y177594D01*
X4913D01*
X4903Y177595D01*
X4893Y177596D01*
X4883Y177597D01*
X4873Y177599D01*
X4862Y177601D01*
X4853Y177604D01*
X4843Y177608D01*
X4833Y177611D01*
X4824Y177616D01*
X4815Y177621D01*
X4806Y177626D01*
X4798Y177632D01*
X4789Y177638D01*
X4782Y177645D01*
X4774Y177652D01*
X4767Y177660D01*
X4760Y177667D01*
X4754Y177676D01*
X4748Y177684D01*
X4743Y177693D01*
X4738Y177702D01*
X4734Y177711D01*
X4730Y177721D01*
X4726Y177731D01*
X4723Y177740D01*
X4721Y177750D01*
X4719Y177761D01*
X4718Y177771D01*
X4717Y177781D01*
X4716Y177791D01*
Y180311D01*
X4717Y180321D01*
X4718Y180332D01*
X4719Y180342D01*
X4721Y180352D01*
X4723Y180362D01*
X4726Y180372D01*
X4730Y180382D01*
X4734Y180391D01*
X4738Y180400D01*
X4743Y180409D01*
X4748Y180418D01*
X4754Y180427D01*
X4760Y180435D01*
X4767Y180443D01*
X4774Y180450D01*
X4782Y180457D01*
X4789Y180464D01*
X4798Y180470D01*
X4806Y180476D01*
X4815Y180482D01*
X4824Y180486D01*
X4833Y180491D01*
X4843Y180495D01*
X4853Y180498D01*
X4862Y180501D01*
X4873Y180504D01*
X4883Y180505D01*
X4893Y180507D01*
X4903Y180508D01*
X4913Y180508D01*
X6055D01*
X6065Y180508D01*
D02*
G37*
G36*
X4097D02*
X4107Y180507D01*
X4117Y180505D01*
X4127Y180504D01*
X4138Y180501D01*
X4147Y180498D01*
X4157Y180495D01*
X4167Y180491D01*
X4176Y180486D01*
X4185Y180482D01*
X4194Y180476D01*
X4202Y180470D01*
X4211Y180464D01*
X4218Y180457D01*
X4226Y180450D01*
X4233Y180443D01*
X4240Y180435D01*
X4246Y180427D01*
X4252Y180418D01*
X4257Y180409D01*
X4262Y180400D01*
X4266Y180391D01*
X4270Y180382D01*
X4274Y180372D01*
X4277Y180362D01*
X4279Y180352D01*
X4281Y180342D01*
X4282Y180332D01*
X4283Y180321D01*
X4284Y180311D01*
Y177791D01*
X4283Y177781D01*
X4282Y177771D01*
X4281Y177761D01*
X4279Y177750D01*
X4277Y177740D01*
X4274Y177731D01*
X4270Y177721D01*
X4266Y177711D01*
X4262Y177702D01*
X4257Y177693D01*
X4252Y177684D01*
X4246Y177676D01*
X4240Y177667D01*
X4233Y177660D01*
X4226Y177652D01*
X4218Y177645D01*
X4211Y177638D01*
X4202Y177632D01*
X4194Y177626D01*
X4185Y177621D01*
X4176Y177616D01*
X4167Y177611D01*
X4157Y177608D01*
X4147Y177604D01*
X4138Y177601D01*
X4127Y177599D01*
X4117Y177597D01*
X4107Y177596D01*
X4097Y177595D01*
X4087Y177594D01*
X2945D01*
X2935Y177595D01*
X2924Y177596D01*
X2914Y177597D01*
X2904Y177599D01*
X2894Y177601D01*
X2884Y177604D01*
X2874Y177608D01*
X2865Y177611D01*
X2856Y177616D01*
X2847Y177621D01*
X2838Y177626D01*
X2829Y177632D01*
X2821Y177638D01*
X2813Y177645D01*
X2806Y177652D01*
X2799Y177660D01*
X2792Y177667D01*
X2786Y177676D01*
X2780Y177684D01*
X2774Y177693D01*
X2770Y177702D01*
X2765Y177711D01*
X2761Y177721D01*
X2758Y177731D01*
X2755Y177740D01*
X2752Y177750D01*
X2750Y177761D01*
X2749Y177771D01*
X2748Y177781D01*
X2748Y177791D01*
Y180311D01*
X2748Y180321D01*
X2749Y180332D01*
X2750Y180342D01*
X2752Y180352D01*
X2755Y180362D01*
X2758Y180372D01*
X2761Y180382D01*
X2765Y180391D01*
X2770Y180400D01*
X2774Y180409D01*
X2780Y180418D01*
X2786Y180427D01*
X2792Y180435D01*
X2799Y180443D01*
X2806Y180450D01*
X2813Y180457D01*
X2821Y180464D01*
X2829Y180470D01*
X2838Y180476D01*
X2847Y180482D01*
X2856Y180486D01*
X2865Y180491D01*
X2874Y180495D01*
X2884Y180498D01*
X2894Y180501D01*
X2904Y180504D01*
X2914Y180505D01*
X2924Y180507D01*
X2935Y180508D01*
X2945Y180508D01*
X4087D01*
X4097Y180508D01*
D02*
G37*
G36*
X2128D02*
X2139Y180507D01*
X2149Y180505D01*
X2159Y180504D01*
X2169Y180501D01*
X2179Y180498D01*
X2189Y180495D01*
X2198Y180491D01*
X2207Y180486D01*
X2217Y180482D01*
X2225Y180476D01*
X2234Y180470D01*
X2242Y180464D01*
X2250Y180457D01*
X2257Y180450D01*
X2264Y180443D01*
X2271Y180435D01*
X2277Y180427D01*
X2283Y180418D01*
X2289Y180409D01*
X2293Y180400D01*
X2298Y180391D01*
X2302Y180382D01*
X2305Y180372D01*
X2308Y180362D01*
X2311Y180352D01*
X2313Y180342D01*
X2314Y180332D01*
X2315Y180321D01*
X2315Y180311D01*
Y177791D01*
X2315Y177781D01*
X2314Y177771D01*
X2313Y177761D01*
X2311Y177750D01*
X2308Y177740D01*
X2305Y177731D01*
X2302Y177721D01*
X2298Y177711D01*
X2293Y177702D01*
X2289Y177693D01*
X2283Y177684D01*
X2277Y177676D01*
X2271Y177667D01*
X2264Y177660D01*
X2257Y177652D01*
X2250Y177645D01*
X2242Y177638D01*
X2234Y177632D01*
X2225Y177626D01*
X2217Y177621D01*
X2207Y177616D01*
X2198Y177611D01*
X2189Y177608D01*
X2179Y177604D01*
X2169Y177601D01*
X2159Y177599D01*
X2149Y177597D01*
X2139Y177596D01*
X2128Y177595D01*
X2118Y177594D01*
X976D01*
X966Y177595D01*
X956Y177596D01*
X946Y177597D01*
X935Y177599D01*
X925Y177601D01*
X915Y177604D01*
X906Y177608D01*
X896Y177611D01*
X887Y177616D01*
X878Y177621D01*
X869Y177626D01*
X861Y177632D01*
X852Y177638D01*
X845Y177645D01*
X837Y177652D01*
X830Y177660D01*
X823Y177667D01*
X817Y177676D01*
X811Y177684D01*
X806Y177693D01*
X801Y177702D01*
X797Y177711D01*
X793Y177721D01*
X789Y177731D01*
X786Y177740D01*
X784Y177750D01*
X782Y177761D01*
X781Y177771D01*
X780Y177781D01*
X779Y177791D01*
Y180311D01*
X780Y180321D01*
X781Y180332D01*
X782Y180342D01*
X784Y180352D01*
X786Y180362D01*
X789Y180372D01*
X793Y180382D01*
X797Y180391D01*
X801Y180400D01*
X806Y180409D01*
X811Y180418D01*
X817Y180427D01*
X823Y180435D01*
X830Y180443D01*
X837Y180450D01*
X845Y180457D01*
X852Y180464D01*
X861Y180470D01*
X869Y180476D01*
X878Y180482D01*
X887Y180486D01*
X896Y180491D01*
X906Y180495D01*
X915Y180498D01*
X925Y180501D01*
X935Y180504D01*
X946Y180505D01*
X956Y180507D01*
X966Y180508D01*
X976Y180508D01*
X2118D01*
X2128Y180508D01*
D02*
G37*
G36*
X160D02*
X170Y180507D01*
X180Y180505D01*
X190Y180504D01*
X201Y180501D01*
X210Y180498D01*
X220Y180495D01*
X230Y180491D01*
X239Y180486D01*
X248Y180482D01*
X257Y180476D01*
X265Y180470D01*
X274Y180464D01*
X281Y180457D01*
X289Y180450D01*
X296Y180443D01*
X303Y180435D01*
X309Y180427D01*
X315Y180418D01*
X320Y180409D01*
X325Y180400D01*
X329Y180391D01*
X333Y180382D01*
X337Y180372D01*
X340Y180362D01*
X342Y180352D01*
X344Y180342D01*
X345Y180332D01*
X346Y180321D01*
X347Y180311D01*
Y177791D01*
X346Y177781D01*
X345Y177771D01*
X344Y177761D01*
X342Y177750D01*
X340Y177740D01*
X337Y177731D01*
X333Y177721D01*
X329Y177711D01*
X325Y177702D01*
X320Y177693D01*
X315Y177684D01*
X309Y177676D01*
X303Y177667D01*
X296Y177660D01*
X289Y177652D01*
X281Y177645D01*
X274Y177638D01*
X265Y177632D01*
X257Y177626D01*
X248Y177621D01*
X239Y177616D01*
X230Y177611D01*
X220Y177608D01*
X210Y177604D01*
X201Y177601D01*
X190Y177599D01*
X180Y177597D01*
X170Y177596D01*
X160Y177595D01*
X150Y177594D01*
X-992D01*
X-1002Y177595D01*
X-1013Y177596D01*
X-1023Y177597D01*
X-1033Y177599D01*
X-1043Y177601D01*
X-1053Y177604D01*
X-1063Y177608D01*
X-1072Y177611D01*
X-1082Y177616D01*
X-1091Y177621D01*
X-1099Y177626D01*
X-1108Y177632D01*
X-1116Y177638D01*
X-1124Y177645D01*
X-1131Y177652D01*
X-1138Y177660D01*
X-1145Y177667D01*
X-1151Y177676D01*
X-1157Y177684D01*
X-1163Y177693D01*
X-1168Y177702D01*
X-1172Y177711D01*
X-1176Y177721D01*
X-1179Y177731D01*
X-1182Y177740D01*
X-1185Y177750D01*
X-1187Y177761D01*
X-1188Y177771D01*
X-1189Y177781D01*
X-1189Y177791D01*
Y180311D01*
X-1189Y180321D01*
X-1188Y180332D01*
X-1187Y180342D01*
X-1185Y180352D01*
X-1182Y180362D01*
X-1179Y180372D01*
X-1176Y180382D01*
X-1172Y180391D01*
X-1168Y180400D01*
X-1163Y180409D01*
X-1157Y180418D01*
X-1151Y180427D01*
X-1145Y180435D01*
X-1138Y180443D01*
X-1131Y180450D01*
X-1124Y180457D01*
X-1116Y180464D01*
X-1108Y180470D01*
X-1099Y180476D01*
X-1091Y180482D01*
X-1082Y180486D01*
X-1072Y180491D01*
X-1063Y180495D01*
X-1053Y180498D01*
X-1043Y180501D01*
X-1033Y180504D01*
X-1023Y180505D01*
X-1013Y180507D01*
X-1002Y180508D01*
X-992Y180508D01*
X150D01*
X160Y180508D01*
D02*
G37*
G36*
X-1809D02*
X-1798Y180507D01*
X-1788Y180505D01*
X-1778Y180504D01*
X-1768Y180501D01*
X-1758Y180498D01*
X-1748Y180495D01*
X-1739Y180491D01*
X-1729Y180486D01*
X-1720Y180482D01*
X-1712Y180476D01*
X-1703Y180470D01*
X-1695Y180464D01*
X-1687Y180457D01*
X-1680Y180450D01*
X-1673Y180443D01*
X-1666Y180435D01*
X-1660Y180427D01*
X-1654Y180418D01*
X-1648Y180409D01*
X-1643Y180400D01*
X-1639Y180391D01*
X-1635Y180382D01*
X-1632Y180372D01*
X-1629Y180362D01*
X-1626Y180352D01*
X-1625Y180342D01*
X-1623Y180332D01*
X-1622Y180321D01*
X-1622Y180311D01*
Y177791D01*
X-1622Y177781D01*
X-1623Y177771D01*
X-1625Y177761D01*
X-1626Y177750D01*
X-1629Y177740D01*
X-1632Y177731D01*
X-1635Y177721D01*
X-1639Y177711D01*
X-1643Y177702D01*
X-1648Y177693D01*
X-1654Y177684D01*
X-1660Y177676D01*
X-1666Y177667D01*
X-1673Y177660D01*
X-1680Y177652D01*
X-1687Y177645D01*
X-1695Y177638D01*
X-1703Y177632D01*
X-1712Y177626D01*
X-1720Y177621D01*
X-1729Y177616D01*
X-1739Y177611D01*
X-1748Y177608D01*
X-1758Y177604D01*
X-1768Y177601D01*
X-1778Y177599D01*
X-1788Y177597D01*
X-1798Y177596D01*
X-1809Y177595D01*
X-1819Y177594D01*
X-2961D01*
X-2971Y177595D01*
X-2981Y177596D01*
X-2991Y177597D01*
X-3002Y177599D01*
X-3012Y177601D01*
X-3022Y177604D01*
X-3031Y177608D01*
X-3041Y177611D01*
X-3050Y177616D01*
X-3059Y177621D01*
X-3068Y177626D01*
X-3076Y177632D01*
X-3084Y177638D01*
X-3092Y177645D01*
X-3100Y177652D01*
X-3107Y177660D01*
X-3114Y177667D01*
X-3120Y177676D01*
X-3126Y177684D01*
X-3131Y177693D01*
X-3136Y177702D01*
X-3140Y177711D01*
X-3144Y177721D01*
X-3148Y177731D01*
X-3151Y177740D01*
X-3153Y177750D01*
X-3155Y177761D01*
X-3156Y177771D01*
X-3157Y177781D01*
X-3158Y177791D01*
Y180311D01*
X-3157Y180321D01*
X-3156Y180332D01*
X-3155Y180342D01*
X-3153Y180352D01*
X-3151Y180362D01*
X-3148Y180372D01*
X-3144Y180382D01*
X-3140Y180391D01*
X-3136Y180400D01*
X-3131Y180409D01*
X-3126Y180418D01*
X-3120Y180427D01*
X-3114Y180435D01*
X-3107Y180443D01*
X-3100Y180450D01*
X-3092Y180457D01*
X-3084Y180464D01*
X-3076Y180470D01*
X-3068Y180476D01*
X-3059Y180482D01*
X-3050Y180486D01*
X-3041Y180491D01*
X-3031Y180495D01*
X-3022Y180498D01*
X-3012Y180501D01*
X-3002Y180504D01*
X-2991Y180505D01*
X-2981Y180507D01*
X-2971Y180508D01*
X-2961Y180508D01*
X-1819D01*
X-1809Y180508D01*
D02*
G37*
D74*
X75200Y123637D02*
D03*
Y115763D02*
D03*
X92300Y123037D02*
D03*
Y115163D02*
D03*
X25600Y70263D02*
D03*
Y78137D02*
D03*
X-11000Y117463D02*
D03*
Y125337D02*
D03*
X-17400Y105537D02*
D03*
Y97663D02*
D03*
X213400Y161163D02*
D03*
Y169037D02*
D03*
X205000Y159437D02*
D03*
Y151563D02*
D03*
X172700Y49163D02*
D03*
Y57037D02*
D03*
X161600Y111937D02*
D03*
Y104063D02*
D03*
X171400Y103926D02*
D03*
Y111800D02*
D03*
D75*
X18163Y92100D02*
D03*
X26037D02*
D03*
X4437Y107700D02*
D03*
X-3437D02*
D03*
X91963Y215200D02*
D03*
X99837D02*
D03*
X204863Y178400D02*
D03*
X212737D02*
D03*
X165037Y57100D02*
D03*
X157163D02*
D03*
X180263Y44000D02*
D03*
X188137D02*
D03*
X15263Y57000D02*
D03*
X23137D02*
D03*
X15263Y49500D02*
D03*
X23137D02*
D03*
X-1263Y56800D02*
D03*
X-9137D02*
D03*
X-12463Y64700D02*
D03*
X-20337D02*
D03*
X178163Y97500D02*
D03*
X186037D02*
D03*
X24051Y203500D02*
D03*
X31925D02*
D03*
X101037Y179500D02*
D03*
X93163D02*
D03*
D76*
X-7500Y15950D02*
D03*
Y10450D02*
D03*
X150900Y49350D02*
D03*
Y54850D02*
D03*
X26200Y121750D02*
D03*
Y127250D02*
D03*
X19400Y121550D02*
D03*
Y127050D02*
D03*
X153100Y102250D02*
D03*
Y107750D02*
D03*
D77*
X18650Y137600D02*
D03*
X24150D02*
D03*
X-17550Y112100D02*
D03*
X-23050D02*
D03*
X-17600Y117900D02*
D03*
X-23100D02*
D03*
D78*
X104323Y244500D02*
D03*
X107472D02*
D03*
X98024D02*
D03*
X101173D02*
D03*
X110622D02*
D03*
D79*
X-712Y205800D02*
D03*
X-4688D02*
D03*
D80*
X155840Y15000D02*
D03*
X148360D02*
D03*
X144060Y66800D02*
D03*
X151541D02*
D03*
X87160Y194900D02*
D03*
X94640D02*
D03*
X103140Y234700D02*
D03*
X95660D02*
D03*
X202741Y81500D02*
D03*
X195260D02*
D03*
X219841Y81400D02*
D03*
X212360D02*
D03*
X142940Y35100D02*
D03*
X135460D02*
D03*
X143140Y28000D02*
D03*
X135660D02*
D03*
X140940Y85700D02*
D03*
X133460D02*
D03*
X140940Y78900D02*
D03*
X133460D02*
D03*
X28359Y188400D02*
D03*
X35840D02*
D03*
X28460Y195200D02*
D03*
X35940D02*
D03*
D81*
X171483Y159100D02*
D03*
D82*
X194317Y168155D02*
D03*
X194317Y159100D02*
D03*
X194317Y150045D02*
D03*
D83*
X203332Y206700D02*
D03*
X221852D02*
D03*
D84*
X227949Y147819D02*
D03*
X214449D02*
D03*
X218249Y187520D02*
D03*
X204749D02*
D03*
D85*
X195201Y222800D02*
D03*
X157799D02*
D03*
D86*
X213127Y139278D02*
D03*
X228327D02*
D03*
D87*
X199800Y6032D02*
D03*
Y24552D02*
D03*
D88*
X136335Y8000D02*
D03*
X115665D02*
D03*
D89*
X141800Y42160D02*
D03*
Y49640D02*
D03*
X146800Y94859D02*
D03*
Y102340D02*
D03*
X136200Y139260D02*
D03*
Y146740D02*
D03*
D90*
X197110Y63000D02*
D03*
X196010Y112600D02*
D03*
D91*
X209906Y65953D02*
D03*
Y60047D02*
D03*
X208805Y115553D02*
D03*
Y109647D02*
D03*
D92*
X196126Y72843D02*
D03*
X199276D02*
D03*
X202425D02*
D03*
X205575D02*
D03*
X208724D02*
D03*
X211874D02*
D03*
Y53158D02*
D03*
X208724D02*
D03*
X205575D02*
D03*
X202425D02*
D03*
X199276D02*
D03*
X196126D02*
D03*
X195026Y122442D02*
D03*
X198176D02*
D03*
X201325D02*
D03*
X204475D02*
D03*
X207624D02*
D03*
X210774D02*
D03*
Y102758D02*
D03*
X207624D02*
D03*
X204475D02*
D03*
X201325D02*
D03*
X198176D02*
D03*
X195026D02*
D03*
D93*
X170369Y41600D02*
D03*
X168400D02*
D03*
X166431D02*
D03*
X164463D02*
D03*
X162495D02*
D03*
X160526D02*
D03*
Y21915D02*
D03*
X162495Y21899D02*
D03*
X164463D02*
D03*
X166431D02*
D03*
X168400D02*
D03*
X170369D02*
D03*
X169321Y94842D02*
D03*
X167353D02*
D03*
X165384D02*
D03*
X163416D02*
D03*
X161447D02*
D03*
X159479D02*
D03*
Y75157D02*
D03*
X161447Y75142D02*
D03*
X163416D02*
D03*
X165384D02*
D03*
X167353D02*
D03*
X169321D02*
D03*
D94*
X155605Y36679D02*
D03*
Y34710D02*
D03*
Y32742D02*
D03*
Y30773D02*
D03*
Y28805D02*
D03*
Y26836D02*
D03*
X175290D02*
D03*
Y28805D02*
D03*
Y30773D02*
D03*
Y32742D02*
D03*
Y34710D02*
D03*
Y36679D02*
D03*
X154558Y89921D02*
D03*
Y87953D02*
D03*
Y85984D02*
D03*
Y84016D02*
D03*
Y82047D02*
D03*
Y80079D02*
D03*
X174242D02*
D03*
Y82047D02*
D03*
Y84016D02*
D03*
Y85984D02*
D03*
Y87953D02*
D03*
Y89921D02*
D03*
D95*
X165447Y31758D02*
D03*
X164400Y85000D02*
D03*
D96*
X106222Y99965D02*
D03*
X104253D02*
D03*
X102285D02*
D03*
X100317D02*
D03*
X98348D02*
D03*
X96380D02*
D03*
X94411D02*
D03*
X92443D02*
D03*
X90474D02*
D03*
X88506D02*
D03*
X86537D02*
D03*
X84569D02*
D03*
X82600D02*
D03*
X80632D02*
D03*
X78663D02*
D03*
X76695D02*
D03*
X74726D02*
D03*
X72758D02*
D03*
X70789D02*
D03*
X68821D02*
D03*
X66852D02*
D03*
X64884D02*
D03*
X62915D02*
D03*
X60947D02*
D03*
X58978D02*
D03*
Y39035D02*
D03*
X60947D02*
D03*
X62915D02*
D03*
X64884D02*
D03*
X66852D02*
D03*
X68821D02*
D03*
X70789D02*
D03*
X72758D02*
D03*
X74726D02*
D03*
X76695D02*
D03*
X78663D02*
D03*
X80632D02*
D03*
X82600D02*
D03*
X84569D02*
D03*
X86537D02*
D03*
X88506D02*
D03*
X90474D02*
D03*
X92443D02*
D03*
X94411D02*
D03*
X96380D02*
D03*
X98348D02*
D03*
X100317D02*
D03*
X102285D02*
D03*
X104253D02*
D03*
X106222D02*
D03*
D97*
X52135Y93122D02*
D03*
Y91154D02*
D03*
Y89185D02*
D03*
Y87217D02*
D03*
Y85248D02*
D03*
Y83280D02*
D03*
Y81311D02*
D03*
Y79343D02*
D03*
Y77374D02*
D03*
Y75406D02*
D03*
Y73437D02*
D03*
Y71469D02*
D03*
Y69500D02*
D03*
Y67532D02*
D03*
Y65563D02*
D03*
Y63595D02*
D03*
Y61626D02*
D03*
Y59658D02*
D03*
Y57689D02*
D03*
Y55721D02*
D03*
Y53752D02*
D03*
Y51784D02*
D03*
Y49815D02*
D03*
Y47846D02*
D03*
Y45878D02*
D03*
X113065D02*
D03*
Y47846D02*
D03*
Y49815D02*
D03*
Y51784D02*
D03*
Y53752D02*
D03*
Y55721D02*
D03*
Y57689D02*
D03*
Y59658D02*
D03*
Y61626D02*
D03*
Y63595D02*
D03*
Y65563D02*
D03*
Y67532D02*
D03*
Y69500D02*
D03*
Y71469D02*
D03*
Y73437D02*
D03*
Y75406D02*
D03*
Y77374D02*
D03*
Y79343D02*
D03*
Y81311D02*
D03*
Y83280D02*
D03*
Y85248D02*
D03*
Y87217D02*
D03*
Y89185D02*
D03*
Y91154D02*
D03*
Y93122D02*
D03*
D98*
X58400Y113700D02*
D03*
X53000Y197300D02*
D03*
D99*
X58400Y147165D02*
D03*
X53000Y163835D02*
D03*
D100*
X13150Y138950D02*
D03*
D101*
X10591D02*
D03*
X8032D02*
D03*
X5472D02*
D03*
X2913D02*
D03*
X354D02*
D03*
X-2205D02*
D03*
X-4764D02*
D03*
X13150Y115918D02*
D03*
X10591D02*
D03*
X8032D02*
D03*
X5472D02*
D03*
X2913D02*
D03*
X354D02*
D03*
X-2205D02*
D03*
X-4764D02*
D03*
D102*
X-32892Y30598D02*
D03*
D103*
X-21081Y55205D02*
D03*
X-32892D02*
D03*
D104*
X3722Y43000D02*
D03*
D105*
X6700Y75400D02*
D03*
D106*
X-2158Y86955D02*
D03*
X-190D02*
D03*
X1779D02*
D03*
X3747D02*
D03*
X5716D02*
D03*
X7684D02*
D03*
X9653D02*
D03*
X11621D02*
D03*
X13590D02*
D03*
X15558D02*
D03*
Y63845D02*
D03*
X13590D02*
D03*
X11621D02*
D03*
X9653D02*
D03*
X7684D02*
D03*
X5716D02*
D03*
X3747D02*
D03*
X1779D02*
D03*
X-190D02*
D03*
X-2158D02*
D03*
D107*
X18255Y84258D02*
D03*
Y82290D02*
D03*
Y80321D02*
D03*
Y78353D02*
D03*
Y76384D02*
D03*
Y74416D02*
D03*
Y72447D02*
D03*
Y70479D02*
D03*
Y68510D02*
D03*
Y66542D02*
D03*
X-4855D02*
D03*
Y68510D02*
D03*
Y70479D02*
D03*
Y72447D02*
D03*
Y74416D02*
D03*
Y76384D02*
D03*
Y78353D02*
D03*
Y80321D02*
D03*
Y82290D02*
D03*
Y84258D02*
D03*
D108*
X-2251Y10442D02*
D03*
X7395D02*
D03*
D109*
X2572Y17234D02*
D03*
Y3651D02*
D03*
D110*
X4343Y13100D02*
D03*
Y7785D02*
D03*
X800Y13100D02*
D03*
Y7785D02*
D03*
D111*
X29175Y179800D02*
D03*
X36175D02*
D03*
X29175Y172800D02*
D03*
X36175D02*
D03*
D112*
X7355Y170745D02*
D03*
X12644Y165455D02*
D03*
D113*
X-25000Y192496D02*
D03*
Y161000D02*
D03*
D114*
X87000Y266154D02*
D03*
X122433D02*
D03*
X87000Y244500D02*
D03*
X122039D02*
D03*
D115*
X107073Y181415D02*
D03*
X109042D02*
D03*
X111010D02*
D03*
X112979D02*
D03*
X114947D02*
D03*
X116916D02*
D03*
X118884D02*
D03*
X120853D02*
D03*
X122821D02*
D03*
X124790D02*
D03*
X126758D02*
D03*
X128727D02*
D03*
Y214785D02*
D03*
X126758D02*
D03*
X124790D02*
D03*
X122821D02*
D03*
X120853D02*
D03*
X118884D02*
D03*
X116916D02*
D03*
X114947D02*
D03*
X112979D02*
D03*
X111010D02*
D03*
X109042D02*
D03*
X107073D02*
D03*
D116*
X134585Y187273D02*
D03*
Y189242D02*
D03*
Y191210D02*
D03*
Y193179D02*
D03*
Y195147D02*
D03*
Y197116D02*
D03*
Y199084D02*
D03*
Y201053D02*
D03*
Y203021D02*
D03*
Y204990D02*
D03*
Y206958D02*
D03*
Y208927D02*
D03*
X101215D02*
D03*
Y206958D02*
D03*
Y204990D02*
D03*
Y203021D02*
D03*
Y201053D02*
D03*
Y199084D02*
D03*
Y197116D02*
D03*
Y195147D02*
D03*
Y193179D02*
D03*
Y191210D02*
D03*
Y189242D02*
D03*
Y187273D02*
D03*
D117*
X94600Y160500D02*
D03*
X126096D02*
D03*
D118*
X126041Y141500D02*
D03*
D119*
X92577D02*
D03*
D120*
X4000Y223500D02*
D03*
X9000Y233500D02*
D03*
X39000D02*
D03*
X29000D02*
D03*
X14000Y223500D02*
D03*
X24000D02*
D03*
X19000Y233500D02*
D03*
D121*
X-25000Y11000D02*
D03*
X223000D02*
D03*
X222300Y258300D02*
D03*
X-24600Y257600D02*
D03*
D122*
X164842Y257000D02*
D03*
D123*
X155000D02*
D03*
X145158D02*
D03*
D124*
X228500Y65921D02*
D03*
Y61000D02*
D03*
X54264Y6000D02*
D03*
X39500D02*
D03*
X44421D02*
D03*
X49343D02*
D03*
X94264D02*
D03*
X79500D02*
D03*
X84421D02*
D03*
X89342D02*
D03*
X228900Y115061D02*
D03*
Y110139D02*
D03*
D125*
X-20000Y141921D02*
D03*
Y137000D02*
D03*
Y132079D02*
D03*
Y127157D02*
D03*
D126*
X-6120Y43000D02*
D03*
X-33680D02*
D03*
D127*
X-32600Y95900D02*
D03*
D128*
Y85900D02*
D03*
Y75900D02*
D03*
Y65900D02*
D03*
D129*
X34000Y223500D02*
D03*
D130*
X-1000Y258500D02*
D03*
X44000D02*
D03*
D131*
X-8421Y267772D02*
D03*
X51815Y268165D02*
D03*
D132*
X70500Y265000D02*
D03*
Y245315D02*
D03*
D133*
X69700Y211485D02*
D03*
Y201800D02*
D03*
Y191800D02*
D03*
Y172272D02*
D03*
Y162272D02*
D03*
Y181957D02*
D03*
D134*
X21900Y106700D02*
D03*
X12400Y149300D02*
D03*
X10600Y147400D02*
D03*
X64300Y74800D02*
D03*
X57931Y81218D02*
D03*
X57674Y77374D02*
D03*
X90100Y15700D02*
D03*
X93700Y186917D02*
D03*
X148948Y83652D02*
D03*
X155755Y73747D02*
D03*
X178686Y70614D02*
D03*
X187400Y29000D02*
D03*
X185000Y31000D02*
D03*
X183300Y33000D02*
D03*
X179600Y34700D02*
D03*
X42300Y19000D02*
D03*
X84300Y45800D02*
D03*
X90200Y18000D02*
D03*
X102300Y28900D02*
D03*
X112600Y43700D02*
D03*
X128215Y28834D02*
D03*
X57300Y45800D02*
D03*
X63400Y48318D02*
D03*
X71200Y56600D02*
D03*
X59500Y86900D02*
D03*
X71100Y91600D02*
D03*
X183800Y86200D02*
D03*
X145934Y54225D02*
D03*
X147657Y36600D02*
D03*
X150514Y33195D02*
D03*
X182200Y28700D02*
D03*
X160000Y15800D02*
D03*
X-2500Y172100D02*
D03*
X40800Y82200D02*
D03*
X59300Y79100D02*
D03*
X26044Y100344D02*
D03*
X39900Y143800D02*
D03*
X70400Y140500D02*
D03*
X51500Y108000D02*
D03*
X56927Y105675D02*
D03*
X11500Y60600D02*
D03*
X13800Y60900D02*
D03*
X40600Y69800D02*
D03*
X40500Y76300D02*
D03*
X40600Y79300D02*
D03*
Y73000D02*
D03*
X13100Y104700D02*
D03*
X22200Y109000D02*
D03*
X5100Y91700D02*
D03*
X121000Y55900D02*
D03*
X123000Y60700D02*
D03*
X146200Y157100D02*
D03*
X99200Y28600D02*
D03*
X108400Y93200D02*
D03*
X-10000Y191100D02*
D03*
X27800Y249400D02*
D03*
X3200Y242700D02*
D03*
X149393Y85984D02*
D03*
X148931Y30821D02*
D03*
X88000Y28300D02*
D03*
X91800Y28000D02*
D03*
X134700Y43300D02*
D03*
X106700Y44700D02*
D03*
X67800Y119800D02*
D03*
X68800Y138200D02*
D03*
X93200Y49300D02*
D03*
X91500Y63900D02*
D03*
X80800Y94300D02*
D03*
X70600Y26300D02*
D03*
X64600Y31600D02*
D03*
X78800Y32700D02*
D03*
X86300Y33700D02*
D03*
X97700Y30400D02*
D03*
X105200Y29100D02*
D03*
X130953Y37300D02*
D03*
X146300Y89500D02*
D03*
X68000Y31700D02*
D03*
X19600Y141400D02*
D03*
X84900Y92700D02*
D03*
X92900Y93000D02*
D03*
X84400Y76700D02*
D03*
X83000Y139900D02*
D03*
X135900Y120500D02*
D03*
X80600Y105200D02*
D03*
X111990Y110300D02*
D03*
X121100Y66500D02*
D03*
X68800Y61000D02*
D03*
X76100Y55800D02*
D03*
X117700Y49600D02*
D03*
X90100Y51000D02*
D03*
X117500Y54600D02*
D03*
X132700Y66400D02*
D03*
X138100Y64100D02*
D03*
X138400Y60300D02*
D03*
X139147Y57347D02*
D03*
X92400Y45300D02*
D03*
X64600Y65200D02*
D03*
X71700Y58900D02*
D03*
X56800Y83300D02*
D03*
X109500Y103100D02*
D03*
X42300Y179700D02*
D03*
X53100Y116800D02*
D03*
X87400Y132200D02*
D03*
X62600Y107400D02*
D03*
X27000Y88768D02*
D03*
X107599Y81700D02*
D03*
X7400Y92200D02*
D03*
X13500Y89600D02*
D03*
X16100Y102800D02*
D03*
X40090Y52090D02*
D03*
X27700Y55300D02*
D03*
X57383Y52017D02*
D03*
X57500Y49600D02*
D03*
X61200Y63000D02*
D03*
X57600Y73500D02*
D03*
X26100Y104300D02*
D03*
X61200Y75400D02*
D03*
X27200Y97900D02*
D03*
X21100Y111200D02*
D03*
X72400Y84000D02*
D03*
X38400Y139473D02*
D03*
X41400Y49400D02*
D03*
X88200Y113900D02*
D03*
X88000Y116200D02*
D03*
X78900Y113900D02*
D03*
Y116000D02*
D03*
X86100Y113900D02*
D03*
X86000Y116200D02*
D03*
X81100Y113900D02*
D03*
Y116000D02*
D03*
X64900Y107300D02*
D03*
X176550Y38600D02*
D03*
X143200Y62300D02*
D03*
X162300Y16000D02*
D03*
X176800Y65750D02*
D03*
X195013Y93313D02*
D03*
X180500Y26900D02*
D03*
X203600Y45500D02*
D03*
X211600Y87800D02*
D03*
X205400Y48200D02*
D03*
X194500Y36100D02*
D03*
X172400Y65600D02*
D03*
X3500Y19000D02*
D03*
X0Y82200D02*
D03*
X27700Y52300D02*
D03*
Y49700D02*
D03*
X800Y69500D02*
D03*
X3000Y81200D02*
D03*
X-8200Y76400D02*
D03*
X-8054Y70553D02*
D03*
X-28100Y47800D02*
D03*
X21700Y80500D02*
D03*
X-13600Y38368D02*
D03*
X19100Y37900D02*
D03*
X-24000Y61000D02*
D03*
X-24200Y72600D02*
D03*
X-3800Y7600D02*
D03*
X9500Y10300D02*
D03*
X-2229Y2071D02*
D03*
X-15400Y53600D02*
D03*
X5700Y58800D02*
D03*
X1865Y60744D02*
D03*
X10700Y57100D02*
D03*
X-1300Y51600D02*
D03*
X-10700Y136600D02*
D03*
X189895Y120999D02*
D03*
X187395D02*
D03*
X180216Y84016D02*
D03*
X191100Y98800D02*
D03*
X149900Y74700D02*
D03*
X185200Y90000D02*
D03*
X167800Y69200D02*
D03*
X186685Y88085D02*
D03*
X208300Y94500D02*
D03*
X192500Y105500D02*
D03*
X187500D02*
D03*
X190000D02*
D03*
X182300Y122800D02*
D03*
X200300Y129800D02*
D03*
X204500Y131000D02*
D03*
X206000Y194000D02*
D03*
X141600Y95000D02*
D03*
X145850Y107750D02*
D03*
X201100Y97200D02*
D03*
X135900Y229500D02*
D03*
X129800Y232600D02*
D03*
X98100Y168000D02*
D03*
X113900Y153200D02*
D03*
X145000Y200800D02*
D03*
X33100Y168900D02*
D03*
X11700Y209200D02*
D03*
X15700Y210000D02*
D03*
X13600D02*
D03*
D135*
X79500Y237900D02*
D03*
X98167Y267900D02*
D03*
X133600D02*
D03*
X122900Y234300D02*
D03*
X132300Y212000D02*
D03*
X118498Y199402D02*
D03*
X109300Y206000D02*
D03*
X106000Y220200D02*
D03*
X98400D02*
D03*
X94000D02*
D03*
X102200D02*
D03*
X179883Y138630D02*
D03*
X52132Y34032D02*
D03*
X119000Y29800D02*
D03*
X25700Y131400D02*
D03*
X22100D02*
D03*
X18300Y131600D02*
D03*
X13400Y128100D02*
D03*
X10436Y126372D02*
D03*
X12011Y123222D02*
D03*
X73700Y93400D02*
D03*
X11100Y91800D02*
D03*
X52800Y170300D02*
D03*
X21800Y87100D02*
D03*
X101300Y59300D02*
D03*
X78000Y71000D02*
D03*
X87600Y233300D02*
D03*
X87900Y123300D02*
D03*
X84200D02*
D03*
X80200Y123400D02*
D03*
X39800Y110200D02*
D03*
X231500Y52200D02*
D03*
X225800D02*
D03*
X219900Y52000D02*
D03*
X88800Y109600D02*
D03*
X68646Y105800D02*
D03*
X40000Y119250D02*
D03*
Y123400D02*
D03*
Y115100D02*
D03*
X57600Y141700D02*
D03*
X51600Y142900D02*
D03*
X73300Y50800D02*
D03*
X101700Y56200D02*
D03*
X67300Y80500D02*
D03*
X89500Y77400D02*
D03*
X92800Y75400D02*
D03*
X96400Y76100D02*
D03*
X92600Y80200D02*
D03*
X96800D02*
D03*
X128400Y43400D02*
D03*
X124700Y43700D02*
D03*
X135525Y103900D02*
D03*
X135600Y108300D02*
D03*
X140000Y103900D02*
D03*
X140475Y108400D02*
D03*
X150769Y117523D02*
D03*
X160218Y126972D02*
D03*
X157855Y122247D02*
D03*
X153131D02*
D03*
X20200Y22600D02*
D03*
X18400Y26400D02*
D03*
X16825Y23250D02*
D03*
X18500Y87400D02*
D03*
X-11200Y94400D02*
D03*
X-10500Y91200D02*
D03*
X-8000Y100300D02*
D03*
X-13800Y89400D02*
D03*
X13600Y166300D02*
D03*
X181500Y60700D02*
D03*
X181600Y57200D02*
D03*
X181700Y53300D02*
D03*
Y49700D02*
D03*
X173500Y44300D02*
D03*
X173100Y40600D02*
D03*
X228200Y78700D02*
D03*
X223300Y48900D02*
D03*
X229000Y48700D02*
D03*
X143800Y18600D02*
D03*
X164700Y1600D02*
D03*
X170100Y6200D02*
D03*
X167500Y4000D02*
D03*
X164600Y5700D02*
D03*
X127300Y16900D02*
D03*
X124100D02*
D03*
X153900Y200D02*
D03*
X149400Y300D02*
D03*
X144500D02*
D03*
X140000Y400D02*
D03*
X125849Y1287D02*
D03*
X121849Y1487D02*
D03*
X121949Y4987D02*
D03*
X126049Y4687D02*
D03*
X120500Y16900D02*
D03*
X187500Y71200D02*
D03*
X187800Y52300D02*
D03*
X223335Y29921D02*
D03*
X219398D02*
D03*
X221366Y25984D02*
D03*
X215461Y29921D02*
D03*
X217429Y25984D02*
D03*
X211524Y29921D02*
D03*
X213492Y25984D02*
D03*
X211524Y22047D02*
D03*
X207587Y29921D02*
D03*
X209555Y25984D02*
D03*
X207587Y22047D02*
D03*
X192100Y15500D02*
D03*
X192200Y19700D02*
D03*
X192100Y23800D02*
D03*
X191300Y71400D02*
D03*
X220200Y74700D02*
D03*
X224137D02*
D03*
X228074D02*
D03*
X102900Y174600D02*
D03*
X105700Y175200D02*
D03*
X99600Y174300D02*
D03*
X-8000Y94400D02*
D03*
X-16900Y92300D02*
D03*
X23400Y84000D02*
D03*
X108374Y10236D02*
D03*
X109949Y7087D02*
D03*
X108374Y3937D02*
D03*
X106799Y7087D02*
D03*
X105225Y3937D02*
D03*
X14500Y27200D02*
D03*
X-31783Y139370D02*
D03*
X-33358Y136221D02*
D03*
X11900Y133600D02*
D03*
X-13500Y131300D02*
D03*
X-3700Y131400D02*
D03*
X-1000Y129000D02*
D03*
X-16300Y157700D02*
D03*
X-11100Y144500D02*
D03*
X-15800Y150800D02*
D03*
X-12900Y147700D02*
D03*
X187115Y148819D02*
D03*
X185540Y151969D02*
D03*
X183965Y148819D02*
D03*
X182390Y151969D02*
D03*
X231209Y178740D02*
D03*
Y159843D02*
D03*
X226484Y178740D02*
D03*
X228847Y174016D02*
D03*
Y164567D02*
D03*
Y155118D02*
D03*
X221760Y178740D02*
D03*
X224122Y174016D02*
D03*
X219398D02*
D03*
X167100Y138900D02*
D03*
X190883Y138730D02*
D03*
X184983Y138630D02*
D03*
X174399Y139400D02*
D03*
X168100Y145699D02*
D03*
X179000Y108700D02*
D03*
X179241Y104725D02*
D03*
X176091D02*
D03*
X172941Y98425D02*
D03*
X229074Y123800D02*
D03*
Y100178D02*
D03*
X225137Y123800D02*
D03*
Y100178D02*
D03*
X221200Y123800D02*
D03*
Y100178D02*
D03*
X167329Y223160D02*
D03*
Y194813D02*
D03*
X162605Y213711D02*
D03*
X172054Y194813D02*
D03*
X167329Y213711D02*
D03*
X172054D02*
D03*
X169691Y199538D02*
D03*
X172054Y223160D02*
D03*
X169691Y208987D02*
D03*
X167329Y185365D02*
D03*
X172054D02*
D03*
X167329Y204262D02*
D03*
X164967Y218436D02*
D03*
X169691D02*
D03*
Y190089D02*
D03*
X172054Y204262D02*
D03*
X160243Y218436D02*
D03*
X225303Y236614D02*
D03*
X228256Y230709D02*
D03*
X225303Y224803D02*
D03*
X228256Y218898D02*
D03*
X219397Y236614D02*
D03*
X222350Y230709D02*
D03*
X219397Y224803D02*
D03*
X222350Y218898D02*
D03*
X213492Y236614D02*
D03*
X216445Y230709D02*
D03*
X213492Y224803D02*
D03*
X216445Y218898D02*
D03*
X207587Y236614D02*
D03*
X210539Y230709D02*
D03*
X207587Y224803D02*
D03*
X210539Y218898D02*
D03*
X201681Y236614D02*
D03*
X204634Y230709D02*
D03*
Y218898D02*
D03*
X195775Y236614D02*
D03*
X198728Y230709D02*
D03*
X189870Y236614D02*
D03*
X192823Y230709D02*
D03*
X191839Y203150D02*
D03*
X193807Y199213D02*
D03*
X191839Y195276D02*
D03*
X193807Y191339D02*
D03*
X191839Y187402D02*
D03*
X193807Y183465D02*
D03*
X187902Y203150D02*
D03*
X189870Y199213D02*
D03*
X187902Y195276D02*
D03*
X189870Y191339D02*
D03*
X187902Y187402D02*
D03*
X189870Y183465D02*
D03*
X129100Y224600D02*
D03*
X68900Y221800D02*
D03*
X79600Y210400D02*
D03*
X81600Y226500D02*
D03*
X76500D02*
D03*
X79700Y221800D02*
D03*
X134300Y154200D02*
D03*
X111300Y253400D02*
D03*
X114900Y187700D02*
D03*
X118200D02*
D03*
X133400Y224600D02*
D03*
X125100Y224000D02*
D03*
X89100Y220200D02*
D03*
X66900Y226900D02*
D03*
X71500Y226800D02*
D03*
X73800Y221800D02*
D03*
X143500Y207000D02*
D03*
X111500Y187700D02*
D03*
X134700Y170800D02*
D03*
X138600D02*
D03*
Y175000D02*
D03*
X92554Y150377D02*
D03*
X93700Y174200D02*
D03*
X89600Y174400D02*
D03*
X86700Y181400D02*
D03*
X87000Y177400D02*
D03*
X7000Y185800D02*
D03*
X1100Y185300D02*
D03*
X8000Y192400D02*
D03*
X700D02*
D03*
X41600Y195100D02*
D03*
X41500Y199900D02*
D03*
X41600Y190500D02*
D03*
X30800Y208700D02*
D03*
X36400Y208800D02*
D03*
X41800Y209000D02*
D03*
X47600D02*
D03*
X-15300Y154100D02*
D03*
X-9100Y148100D02*
D03*
X-12500Y151000D02*
D03*
X-18300Y164800D02*
D03*
X-18200Y168000D02*
D03*
X-28200Y177000D02*
D03*
X-18200Y172100D02*
D03*
X162593Y28903D02*
D03*
Y34612D02*
D03*
X168302D02*
D03*
Y28903D02*
D03*
X165447Y31758D02*
D03*
X161546Y82146D02*
D03*
Y87854D02*
D03*
X167254D02*
D03*
Y82146D02*
D03*
X164400Y85000D02*
D03*
D136*
X-9156Y193344D02*
D03*
X-31200Y202900D02*
D03*
X-15100Y203700D02*
D03*
X-31000Y163000D02*
D03*
X-32100Y187800D02*
D03*
M02*
