G04*
G04 #@! TF.GenerationSoftware,Altium Limited,Altium Designer,20.0.2 (26)*
G04*
G04 Layer_Color=65535*
%FSLAX25Y25*%
%MOIN*%
G70*
G01*
G75*
%ADD10C,0.00984*%
%ADD11C,0.00500*%
%ADD12C,0.01000*%
%ADD13C,0.01575*%
%ADD14C,0.00787*%
%ADD15C,0.01500*%
%ADD16C,0.04000*%
%ADD17C,0.00197*%
%ADD18C,0.00600*%
%ADD19C,0.00400*%
%ADD20R,0.01063X0.02600*%
%ADD21R,0.02500X0.03502*%
%ADD22R,0.02500X0.03358*%
%ADD23R,0.03502X0.02500*%
%ADD24R,0.03358X0.02500*%
%ADD25R,0.03150X0.09843*%
%ADD26R,0.01000X0.07000*%
G36*
X39239Y12129D02*
X40810Y13700D01*
X37713Y13700D01*
X39239Y12129D01*
D02*
G37*
G36*
X79239D02*
X80810Y13700D01*
X77713Y13700D01*
X79239Y12129D01*
D02*
G37*
G36*
X-14717Y128985D02*
X-14717Y125579D01*
X-15336Y124961D01*
X-17483Y126858D01*
X-14717Y128985D01*
D02*
G37*
G36*
X3041Y213316D02*
Y212616D01*
X5741Y209916D01*
X5541Y209717D01*
X841D01*
X3041Y213316D01*
D02*
G37*
G36*
X108400Y95681D02*
X108800Y95281D01*
Y91181D01*
X104300Y95681D01*
X108400D01*
D02*
G37*
G36*
X190220Y54142D02*
X195142Y49220D01*
X190220D01*
Y54142D01*
D02*
G37*
G36*
X223382Y59130D02*
Y61492D01*
X224563Y60311D01*
X223382Y59130D01*
D02*
G37*
G36*
X189120Y103742D02*
X194042Y98821D01*
X189120D01*
Y103742D01*
D02*
G37*
G36*
X223782Y108269D02*
Y110632D01*
X224963Y109450D01*
X223782Y108269D01*
D02*
G37*
G36*
X217153Y135932D02*
X217109Y135975D01*
X217109Y142625D01*
X215118D01*
X215118Y142625D01*
X215127Y141378D01*
X215628D01*
Y137178D01*
X215027D01*
X215017Y135978D01*
X217117D01*
X217153Y135932D01*
D02*
G37*
G36*
X166500Y244200D02*
X162700D01*
X162700Y245000D01*
X164500Y246800D01*
X166500Y244200D01*
D02*
G37*
D10*
X194809Y145911D02*
G03*
X194809Y145911I-492J0D01*
G01*
X174478Y40745D02*
G03*
X174305Y40714I-173J461D01*
G01*
X173431Y93988D02*
G03*
X173258Y93957I-173J461D01*
G01*
X104219Y183927D02*
G03*
X104219Y183927I-492J0D01*
G01*
D11*
X190307Y62354D02*
G03*
X190220Y63984I-162J809D01*
G01*
X15207Y128140D02*
G03*
X15200Y126860I-7J-640D01*
G01*
X189207Y111954D02*
G03*
X189120Y113584I-162J809D01*
G01*
X-21752Y157562D02*
G03*
X-18000Y163763I-3248J6201D01*
G01*
X-32000D02*
G03*
X-28248Y157562I7000J0D01*
G01*
X-18000Y189063D02*
G03*
X-21752Y195264I-7000J0D01*
G01*
X-28248D02*
G03*
X-32000Y189063I3248J-6201D01*
G01*
X78374Y265000D02*
G03*
X62299Y265616I-8099J-1312D01*
G01*
X62232Y244921D02*
G03*
X78348Y244357I8132J1841D01*
G01*
X129534Y163748D02*
G03*
X123333Y167500I-6201J-3248D01*
G01*
Y153500D02*
G03*
X129534Y157252I0J7000D01*
G01*
X98033Y167500D02*
G03*
X91832Y163748I0J-7000D01*
G01*
Y157252D02*
G03*
X98033Y153500I6201J3248D01*
G01*
X71800Y112363D02*
X78600D01*
Y118563D01*
Y120863D02*
Y126963D01*
X71800Y127037D02*
X78600D01*
X71800Y120763D02*
Y126963D01*
Y112363D02*
Y118663D01*
X88900Y111763D02*
X95700D01*
Y117963D01*
Y120263D02*
Y126363D01*
X88900Y126437D02*
X95700D01*
X88900Y120163D02*
Y126363D01*
Y111763D02*
Y118063D01*
X29437Y88700D02*
Y95500D01*
X23237D02*
X29437D01*
X14837D02*
X20937D01*
X14763Y88700D02*
Y95500D01*
X14837Y88700D02*
X21037D01*
X23137D02*
X29437D01*
X-10100Y7850D02*
X-4900D01*
X-10100D02*
Y12250D01*
X-4900Y7850D02*
Y12350D01*
X-10100Y14150D02*
Y18550D01*
X-4900Y14150D02*
Y18550D01*
X-10100D02*
X-4900D01*
X22200Y81537D02*
X29000D01*
X22200Y75337D02*
Y81537D01*
Y66937D02*
Y73037D01*
Y66863D02*
X29000D01*
Y66937D02*
Y73137D01*
Y75237D02*
Y81537D01*
X26750Y135000D02*
Y140200D01*
X22350Y135000D02*
X26750D01*
X22350Y140200D02*
X26750D01*
X16050Y135000D02*
X20550D01*
X16050Y140200D02*
X20450D01*
X16050Y135000D02*
Y140200D01*
X-25650Y109500D02*
Y114700D01*
X-21250D01*
X-25650Y109500D02*
X-21250D01*
X-19450Y114700D02*
X-14950D01*
X-19350Y109500D02*
X-14950D01*
Y114700D01*
X-25700Y115300D02*
Y120500D01*
X-21300D01*
X-25700Y115300D02*
X-21300D01*
X-19500Y120500D02*
X-15000D01*
X-19400Y115300D02*
X-15000D01*
Y120500D01*
X-14400Y128737D02*
X-7600D01*
X-14400Y122537D02*
Y128737D01*
Y114137D02*
Y120237D01*
Y114063D02*
X-7600D01*
Y114137D02*
Y120337D01*
Y122437D02*
Y128737D01*
X-20800Y94263D02*
X-14000D01*
Y100463D01*
Y102763D02*
Y108863D01*
X-20800Y108937D02*
X-14000D01*
X-20800Y102663D02*
Y108863D01*
Y94263D02*
Y100563D01*
X-6837Y104300D02*
Y111100D01*
Y104300D02*
X-637D01*
X1663D02*
X7763D01*
X7837D02*
Y111100D01*
X1563D02*
X7763D01*
X-6837D02*
X-537D01*
X153300Y18800D02*
X159300D01*
Y11200D02*
Y18800D01*
X153500Y11200D02*
X159300D01*
X144900D02*
Y18800D01*
Y11200D02*
X150800D01*
X144900Y18800D02*
X150800D01*
X140600Y63000D02*
X146600D01*
X140600D02*
Y70600D01*
X146400D01*
X155000Y63000D02*
Y70600D01*
X149100D02*
X155000D01*
X149100Y63000D02*
X155000D01*
X83700Y191100D02*
X89700D01*
X83700D02*
Y198700D01*
X89500D01*
X98100Y191100D02*
Y198700D01*
X92200D02*
X98100D01*
X92200Y191100D02*
X98100D01*
X88563Y218600D02*
X94863D01*
X96963D02*
X103163D01*
X103237Y211800D02*
Y218600D01*
X97063Y211800D02*
X103163D01*
X88563D02*
X94763D01*
X88563D02*
Y218600D01*
X100700Y230900D02*
X106600D01*
X100700Y238500D02*
X106600D01*
Y230900D02*
Y238500D01*
X92200D02*
X98000D01*
X92200Y230900D02*
Y238500D01*
Y230900D02*
X98200D01*
X162231Y244054D02*
X164524Y247002D01*
X166700Y244100D01*
X201767Y211700D02*
Y215543D01*
X222691Y212240D02*
Y215543D01*
X201758Y201180D02*
X201758Y197700D01*
X201767Y215543D02*
X222624D01*
X222544Y197700D02*
X222545Y201070D01*
X201758Y197700D02*
X222544D01*
X210000Y172437D02*
X216800D01*
X210000Y166237D02*
Y172437D01*
Y157837D02*
Y163937D01*
Y157763D02*
X216800D01*
Y157837D02*
Y164037D01*
Y166137D02*
Y172437D01*
X201600Y148163D02*
X208400D01*
Y154363D01*
Y156663D02*
Y162763D01*
X201600Y162837D02*
X208400D01*
X201600Y156563D02*
Y162763D01*
Y148163D02*
Y154463D01*
X210449Y143819D02*
Y151820D01*
X231949Y143819D02*
Y151820D01*
X210449Y143819D02*
X216949D01*
X210449Y151820D02*
X216949D01*
X225449D02*
X231949D01*
X225449Y143819D02*
X231949D01*
X187130Y200359D02*
X199138Y212367D01*
X185555Y245241D02*
X199138Y231658D01*
X153862Y245241D02*
X185555D01*
X199138Y226737D02*
Y231658D01*
Y212367D02*
Y218076D01*
X153862Y226737D02*
Y245241D01*
Y200359D02*
X187130D01*
X153862D02*
Y218469D01*
X215127Y136087D02*
Y136978D01*
X215118Y141578D02*
Y142625D01*
X226138Y135978D02*
Y136978D01*
Y141578D02*
Y142625D01*
X215127Y135978D02*
X226138Y135978D01*
X215118Y142625D02*
X226138Y142625D01*
X216137Y175000D02*
Y181800D01*
X209937D02*
X216137D01*
X201537D02*
X207637D01*
X201463Y175000D02*
Y181800D01*
X201537Y175000D02*
X207737D01*
X209837D02*
X216137D01*
X200749Y183519D02*
Y191519D01*
X222249Y183519D02*
Y191519D01*
X200749Y183519D02*
X207249D01*
X200749Y191519D02*
X207249D01*
X215749D02*
X222249D01*
X215749Y183519D02*
X222249D01*
X190957Y4468D02*
X194800D01*
X190957Y25391D02*
X194260D01*
X205320Y4457D02*
X208800Y4458D01*
X190957Y4468D02*
Y25324D01*
X205430Y25245D02*
X208800Y25244D01*
Y4458D02*
Y25244D01*
X153763Y53700D02*
Y60500D01*
Y53700D02*
X159963D01*
X162263D02*
X168363D01*
X168437D02*
Y60500D01*
X162163D02*
X168363D01*
X153763D02*
X160063D01*
X169300Y60437D02*
X176100D01*
X169300Y54237D02*
Y60437D01*
Y45837D02*
Y51937D01*
Y45763D02*
X176100D01*
Y45837D02*
Y52037D01*
Y54137D02*
Y60437D01*
X148300Y57450D02*
X153500D01*
Y53050D02*
Y57450D01*
X148300Y53050D02*
Y57450D01*
X153500Y46750D02*
Y51250D01*
X148300Y46750D02*
Y51150D01*
Y46750D02*
X153500D01*
X138000Y38700D02*
Y44600D01*
X145600Y38700D02*
Y44600D01*
X138000Y38700D02*
X145600D01*
Y47300D02*
Y53100D01*
X138000D02*
X145600D01*
X138000Y47100D02*
Y53100D01*
X191537Y40600D02*
Y47400D01*
X185337D02*
X191537D01*
X176937D02*
X183037D01*
X176863Y40600D02*
Y47400D01*
X176937Y40600D02*
X183137D01*
X185237D02*
X191537D01*
X190220Y49220D02*
Y76780D01*
X216795D01*
Y49220D02*
Y76780D01*
X190220Y49220D02*
X216795D01*
X200300Y77700D02*
X206200D01*
X200300Y85300D02*
X206200D01*
Y77700D02*
Y85300D01*
X191800D02*
X197600D01*
X191800Y77700D02*
Y85300D01*
Y77700D02*
X197800D01*
X173518Y38057D02*
Y38450D01*
Y40025D01*
X171550D02*
X173518D01*
X157376D02*
X159345D01*
X157376Y38057D02*
Y40025D01*
Y23490D02*
Y25458D01*
Y23490D02*
X158951D01*
X171550D02*
X173518D01*
Y25458D01*
X217400Y77600D02*
X223300D01*
X217400Y85200D02*
X223300D01*
Y77600D02*
Y85200D01*
X208900D02*
X214700D01*
X208900Y77600D02*
Y85200D01*
Y77600D02*
X214900D01*
X140500Y31300D02*
X146400D01*
X140500Y38900D02*
X146400D01*
Y31300D02*
Y38900D01*
X132000D02*
X137800D01*
X132000Y31300D02*
Y38900D01*
Y31300D02*
X138000D01*
X140700Y24200D02*
X146600D01*
X140700Y31800D02*
X146600D01*
Y24200D02*
Y31800D01*
X132200D02*
X138000D01*
X132200Y24200D02*
Y31800D01*
Y24200D02*
X138200D01*
X223382Y64642D02*
Y72122D01*
X236768D01*
Y54799D02*
Y72122D01*
X223382Y54799D02*
X236768D01*
X223382D02*
Y64642D01*
X234405Y59524D02*
X236768D01*
X234405D02*
Y67004D01*
X236768D01*
X223382Y59130D02*
X224563Y60311D01*
Y60311D01*
X223382Y61492D02*
X224563Y60311D01*
X33000Y292D02*
Y13700D01*
Y292D02*
X61000D01*
Y13700D01*
X33000D02*
X61000D01*
X73000Y292D02*
Y13700D01*
Y292D02*
X101000D01*
Y13700D01*
X73000D02*
X101000D01*
X23600Y129850D02*
X28800D01*
Y125450D02*
Y129850D01*
X23600Y125450D02*
Y129850D01*
X28800Y119150D02*
Y123650D01*
X23600Y119150D02*
Y123550D01*
Y119150D02*
X28800D01*
X16800Y129650D02*
X22000D01*
Y125250D02*
Y129650D01*
X16800Y125250D02*
Y129650D01*
X22000Y118950D02*
Y123450D01*
X16800Y118950D02*
Y123350D01*
Y118950D02*
X22000D01*
X-6700Y117600D02*
X-6500D01*
X-6850Y117750D02*
X-6700Y117600D01*
X-6850Y117750D02*
Y137350D01*
X14900Y117600D02*
X15200D01*
X14900Y137400D02*
X15200D01*
X-6800D02*
X-6500D01*
X15200Y117600D02*
X15250Y117650D01*
Y126853D01*
X-6850Y137350D02*
X-6800Y137400D01*
X15250Y128147D02*
Y137400D01*
X-15372Y52842D02*
X-215D01*
Y48709D02*
Y52842D01*
Y33158D02*
Y36701D01*
X-26987Y33158D02*
X-215D01*
X-45491Y35126D02*
X-39585D01*
X-45491D02*
Y50874D01*
X-39585D01*
Y33158D02*
X-38798D01*
X-39585D02*
Y35126D01*
Y50874D01*
Y52842D01*
X-38404D01*
X-5111Y85872D02*
Y87211D01*
X-3772D01*
X18511Y85872D02*
Y87211D01*
X17172D02*
X18511D01*
Y63589D02*
Y64928D01*
X17172Y63589D02*
X18511D01*
X-5111D02*
Y64928D01*
Y63589D02*
X-3772D01*
X26537Y53600D02*
Y60400D01*
X20337D02*
X26537D01*
X11937D02*
X18037D01*
X11863Y53600D02*
Y60400D01*
X11937Y53600D02*
X18137D01*
X20237D02*
X26537D01*
Y46100D02*
Y52900D01*
X20337D02*
X26537D01*
X11937D02*
X18037D01*
X11863Y46100D02*
Y52900D01*
X11937Y46100D02*
X18137D01*
X20237D02*
X26537D01*
X-12537Y53400D02*
Y60200D01*
Y53400D02*
X-6337D01*
X-4037D02*
X2063D01*
X2137D02*
Y60200D01*
X-4137D02*
X2063D01*
X-12537D02*
X-6237D01*
X-23737Y61300D02*
Y68100D01*
Y61300D02*
X-17537D01*
X-15237D02*
X-9137D01*
X-9063D02*
Y68100D01*
X-15337D02*
X-9137D01*
X-23737D02*
X-17437D01*
X-3334Y2568D02*
Y4340D01*
Y2568D02*
X-1562D01*
X6706D02*
X8477D01*
Y4340D01*
Y16545D02*
Y18316D01*
X6706D02*
X8477D01*
X-3334Y16545D02*
Y18316D01*
X-1562D01*
X158200Y100663D02*
X165000D01*
Y106863D01*
Y109163D02*
Y115263D01*
X158200Y115337D02*
X165000D01*
X158200Y109063D02*
Y115263D01*
Y100663D02*
Y106963D01*
X168000Y115200D02*
X174800D01*
X168000Y109000D02*
Y115200D01*
Y100600D02*
Y106700D01*
Y100526D02*
X174800D01*
Y100600D02*
Y106800D01*
Y108900D02*
Y115200D01*
X150500Y110350D02*
X155700D01*
Y105950D02*
Y110350D01*
X150500Y105950D02*
Y110350D01*
X155700Y99650D02*
Y104150D01*
X150500Y99650D02*
Y104050D01*
Y99650D02*
X155700D01*
X143000Y91400D02*
Y97300D01*
X150600Y91400D02*
Y97300D01*
X143000Y91400D02*
X150600D01*
Y100000D02*
Y105800D01*
X143000D02*
X150600D01*
X143000Y99800D02*
Y105800D01*
X189437Y94100D02*
Y100900D01*
X183237D02*
X189437D01*
X174837D02*
X180937D01*
X174763Y94100D02*
Y100900D01*
X174837Y94100D02*
X181037D01*
X183137D02*
X189437D01*
X189120Y98821D02*
Y126380D01*
X215695D01*
Y98821D02*
Y126380D01*
X189120Y98821D02*
X215695D01*
X172471Y91299D02*
Y91693D01*
Y93268D01*
X170502D02*
X172471D01*
X156329D02*
X158298D01*
X156329Y91299D02*
Y93268D01*
Y76732D02*
Y78701D01*
Y76732D02*
X157904D01*
X170502D02*
X172471D01*
Y78701D01*
X138500Y81900D02*
X144400D01*
X138500Y89500D02*
X144400D01*
Y81900D02*
Y89500D01*
X130000D02*
X135800D01*
X130000Y81900D02*
Y89500D01*
Y81900D02*
X136000D01*
X138500Y75100D02*
X144400D01*
X138500Y82700D02*
X144400D01*
Y75100D02*
Y82700D01*
X130000D02*
X135800D01*
X130000Y75100D02*
Y82700D01*
Y75100D02*
X136000D01*
X223782Y113781D02*
Y121261D01*
X237168D01*
Y103939D02*
Y121261D01*
X223782Y103939D02*
X237168D01*
X223782D02*
Y113781D01*
X234805Y108663D02*
X237168D01*
X234805D02*
Y116143D01*
X237168D01*
X223782Y108269D02*
X224963Y109450D01*
Y109450D01*
X223782Y110632D02*
X224963Y109450D01*
X24900Y192200D02*
X30800D01*
X24900Y184600D02*
X30800D01*
X24900D02*
Y192200D01*
X33500Y184600D02*
X39300D01*
Y192200D01*
X33300D02*
X39300D01*
X25883Y183300D02*
X40500D01*
X25883Y176300D02*
Y183300D01*
Y176300D02*
X40500D01*
Y183300D01*
X25883Y176300D02*
X40500D01*
X25883Y169300D02*
Y176300D01*
Y169300D02*
X40500D01*
Y176300D01*
X-5342Y178657D02*
Y179819D01*
X14343Y178657D02*
Y179819D01*
X-5342Y197181D02*
Y198343D01*
X14343Y197181D02*
Y198343D01*
X-5342Y178657D02*
X-4181D01*
X13181D02*
X14343D01*
X-5342Y198343D02*
X-4181D01*
X13181D02*
X14343D01*
X25000Y199000D02*
X30900D01*
X25000Y191400D02*
X30900D01*
X25000D02*
Y199000D01*
X33600Y191400D02*
X39400D01*
Y199000D01*
X33400D02*
X39400D01*
X35325Y200100D02*
Y206900D01*
X29125D02*
X35325D01*
X20725D02*
X26825D01*
X20651Y200100D02*
Y206900D01*
X20725Y200100D02*
X26925D01*
X29025D02*
X35325D01*
X7595Y175878D02*
X11767Y171706D01*
X2221Y170504D02*
X6393Y166332D01*
X2221Y170504D02*
X7595Y175878D01*
X8303Y164423D02*
X12404Y160322D01*
X17778Y165696D01*
X13535Y169939D02*
X17778Y165696D01*
X-35100Y148063D02*
Y205563D01*
X-15400Y205563D01*
Y148063D02*
Y205563D01*
X-35100Y148063D02*
X-15400Y148063D01*
X-32000Y163563D02*
Y189063D01*
X-17964Y163563D02*
Y189099D01*
X78374Y244528D02*
Y265000D01*
X62232Y244921D02*
X62300Y265515D01*
X89763Y176100D02*
Y182900D01*
Y176100D02*
X95963D01*
X98263D02*
X104363D01*
X104437D02*
Y182900D01*
X98163D02*
X104363D01*
X89763D02*
X96063D01*
X81533Y150400D02*
X139033D01*
X81533D02*
X81533Y170100D01*
X139033D01*
X139033Y150400D01*
X98033Y153500D02*
X123533D01*
X97997Y167536D02*
X123533D01*
X132400Y135800D02*
Y141700D01*
X140000Y135800D02*
Y141700D01*
X132400Y135800D02*
X140000D01*
Y144400D02*
Y150200D01*
X132400D02*
X140000D01*
X132400Y144200D02*
Y150200D01*
X61826Y158335D02*
X61826Y213454D01*
X77574Y158335D02*
Y205579D01*
X65763Y154398D02*
X73637D01*
X77574Y158335D01*
X61826Y158335D02*
X65763Y154398D01*
X77574Y158335D02*
Y205579D01*
X73637Y154398D02*
X77574Y158335D01*
X65763Y154398D02*
X73637D01*
X61826Y158335D02*
X65763Y154398D01*
X65763Y217390D02*
X73637D01*
X77574Y205580D02*
Y213454D01*
X61826Y213454D02*
X65763Y217390D01*
X61826Y213454D02*
X61826D01*
X73637Y217390D02*
X77574Y213454D01*
X227364Y198334D02*
Y196001D01*
X226198Y194835D01*
X225031Y196001D01*
Y198334D01*
Y196584D01*
X227364D01*
X199313Y195327D02*
Y198826D01*
Y197660D01*
X196980Y195327D01*
X198730Y197076D01*
X196980Y198826D01*
X213121Y132433D02*
Y135932D01*
Y134765D01*
X210789Y132433D01*
X212538Y134182D01*
X210789Y135932D01*
X230100Y135667D02*
Y133335D01*
X228934Y132168D01*
X227767Y133335D01*
Y135667D01*
Y133918D01*
X230100D01*
X208166Y30064D02*
X210499D01*
X211665Y28898D01*
X210499Y27731D01*
X208166D01*
X209916D01*
Y30064D01*
X211173Y2013D02*
X207674D01*
X208840D01*
X211173Y-320D01*
X209423Y1429D01*
X207674Y-320D01*
D12*
X17400Y138600D02*
G03*
X17400Y138600I-600J0D01*
G01*
X10946Y-2600D02*
Y7746D01*
Y45100D01*
X10900Y45000D02*
X29500D01*
Y146000D01*
X-39000D02*
X29500D01*
X165630Y268417D02*
Y273929D01*
X143976Y268417D02*
X165630D01*
X143976D02*
Y273929D01*
X162087Y271173D02*
Y273929D01*
X147520Y271173D02*
Y273929D01*
X163661Y271961D02*
X163661D01*
X162480Y270779D02*
X163661Y271961D01*
X162087Y270779D02*
X162480D01*
X161693D02*
X162087D01*
X160512Y271961D02*
X161693Y270779D01*
X148307D02*
X149488Y271961D01*
X147126Y270779D02*
X148307D01*
X146339Y271567D02*
X147126Y270779D01*
X145945Y271961D02*
X146339Y271567D01*
X122063Y3276D02*
X130724D01*
X122063D02*
Y13118D01*
X130724D01*
X111800Y520D02*
Y15480D01*
Y520D02*
X140173D01*
Y15480D01*
X111800D02*
X140173D01*
X50526Y106810D02*
X66500D01*
Y154054D01*
X50526D02*
X66500D01*
X50526Y106810D02*
Y154054D01*
X-38623Y130339D02*
X-34800D01*
X-38623Y139857D02*
X-34800D01*
Y130439D02*
Y139857D01*
X-15200Y121252D02*
Y147827D01*
X-38701D02*
X-15200D01*
X-38701Y121252D02*
Y147827D01*
Y121252D02*
X-15200D01*
X-39000Y60400D02*
X-26000D01*
X-39000D02*
Y102500D01*
X-26000D01*
Y99500D02*
Y102500D01*
Y60400D02*
Y99500D01*
X44900Y204190D02*
X60874D01*
X44900Y156946D02*
Y204190D01*
Y156946D02*
X60874D01*
Y204190D01*
X799Y209762D02*
X2941Y213616D01*
X5641Y209817D01*
X125189Y273240D02*
X128732D01*
Y237020D02*
Y273240D01*
X80701Y237020D02*
X128732D01*
X80701D02*
Y273240D01*
X125583D01*
Y277571D01*
Y273240D02*
Y278600D01*
X83457D02*
X125583D01*
X83457Y273240D02*
Y278600D01*
X106291Y273240D02*
X106685D01*
X106291D02*
X106291D01*
X132931Y133626D02*
Y149600D01*
X85687D02*
X132931D01*
X85687Y133626D02*
Y149600D01*
Y133626D02*
X132931D01*
D13*
X-40713Y56100D02*
G03*
X-40713Y56100I-787J0D01*
G01*
D14*
X-8654Y84455D02*
G03*
X-8654Y84455I-394J0D01*
G01*
X-5893Y14379D02*
G03*
X-5893Y14379I-394J0D01*
G01*
X12965Y201472D02*
G03*
X12965Y201472I-394J0D01*
G01*
X177388Y172289D02*
X188412D01*
X177388Y145911D02*
X188412D01*
X177388D02*
Y172289D01*
X188412Y145911D02*
Y172289D01*
X138000Y244000D02*
X172000D01*
X138000D02*
Y274323D01*
X172000Y244000D02*
Y274323D01*
X138000D02*
X172000D01*
X108781Y43319D02*
Y95681D01*
X56419Y43319D02*
X108781D01*
X56419D02*
Y95681D01*
X108781D01*
X54941Y209517D02*
Y301236D01*
X-11559D02*
X54941D01*
X-11559Y209517D02*
Y301236D01*
Y209517D02*
X54941D01*
X105498Y185698D02*
Y210502D01*
X130302D01*
Y185698D02*
Y210502D01*
X105498Y185698D02*
X130302D01*
D15*
X111540Y233772D02*
G03*
X111540Y233772I-623J0D01*
G01*
D16*
X-23500Y96600D02*
D03*
D17*
X-6700Y204500D02*
X2300D01*
Y207100D01*
X-6700D02*
X2300D01*
X-6700Y204500D02*
Y207100D01*
X-6095Y62605D02*
Y65046D01*
X19495Y85754D02*
X20913D01*
X-6095Y88195D02*
X-3654D01*
X19495Y85754D02*
Y88195D01*
X-6095Y85754D02*
Y88195D01*
Y62605D02*
X-3654D01*
X17054Y88195D02*
X19495D01*
X-3654Y61187D02*
Y62605D01*
X19495D02*
Y65046D01*
X-7513Y85754D02*
X-6095D01*
X17054Y88195D02*
Y89613D01*
X-7513Y65046D02*
Y85754D01*
X-3654Y61187D02*
X17054D01*
X19495Y65046D02*
X20913D01*
X-3654Y89613D02*
X17054D01*
Y61187D02*
Y62605D01*
X20913Y65046D02*
Y85754D01*
X-3654Y88195D02*
Y89613D01*
X-7513Y65046D02*
X-6095D01*
X17054Y62605D02*
X19495D01*
X-4318Y1584D02*
Y19301D01*
Y1584D02*
X9461D01*
Y19301D01*
X-4318D02*
X9461D01*
X-7114Y200114D02*
X16114D01*
X-7114Y176886D02*
X16114D01*
X-7114D02*
Y200114D01*
X16114Y176886D02*
Y200114D01*
D18*
X107866Y273634D02*
Y277571D01*
X101961Y273634D02*
Y277177D01*
X107866Y273240D02*
X109047Y274421D01*
X106685D02*
X107866Y273240D01*
X101961D02*
X103142Y274421D01*
X100779D02*
X101961Y273240D01*
D19*
X12119Y143848D02*
Y143015D01*
Y143432D01*
X14618D01*
X14201Y143848D01*
X12200Y112000D02*
Y111167D01*
Y111583D01*
X14699D01*
X14283Y112000D01*
X14699Y108251D02*
X14283Y109084D01*
X13450Y109917D01*
X12617D01*
X12200Y109501D01*
Y108668D01*
X12617Y108251D01*
X13033D01*
X13450Y108668D01*
Y109917D01*
X-5465Y111348D02*
X-5881Y110932D01*
Y110099D01*
X-5465Y109682D01*
X-3799D01*
X-3382Y110099D01*
Y110932D01*
X-3799Y111348D01*
X-4215D01*
X-4632Y110932D01*
Y109682D01*
X-3817Y144700D02*
X-3401Y144283D01*
Y143450D01*
X-3817Y143034D01*
X-4234D01*
X-4650Y143450D01*
X-5067Y143034D01*
X-5483D01*
X-5900Y143450D01*
Y144283D01*
X-5483Y144700D01*
X-5067D01*
X-4650Y144283D01*
X-4234Y144700D01*
X-3817D01*
X-4650Y144283D02*
Y143450D01*
X43403Y178585D02*
Y180785D01*
Y180052D01*
X41937Y178585D01*
X43037Y179685D01*
X41937Y180785D01*
X24850Y180489D02*
Y179156D01*
X24184Y178490D01*
X23517Y179156D01*
Y180489D01*
Y179490D01*
X24850D01*
X43403Y171585D02*
Y173785D01*
Y173052D01*
X41937Y171585D01*
X43037Y172685D01*
X41937Y173785D01*
X24850Y173489D02*
Y172156D01*
X24184Y171490D01*
X23517Y172156D01*
Y173489D01*
Y172490D01*
X24850D01*
D20*
X1768Y205800D02*
D03*
D21*
X206350Y199451D02*
D03*
D22*
X206350Y213879D02*
D03*
D23*
X207049Y9050D02*
D03*
D24*
X192621Y9050D02*
D03*
D25*
X123638Y8197D02*
D03*
D26*
X40000Y179800D02*
D03*
Y172800D02*
D03*
M02*
